<?xml version="1.0" encoding="UTF-8" standalone="no"?>
<!DOCTYPE svg PUBLIC "-//W3C//DTD SVG 1.1//EN"
 "http://www.w3.org/Graphics/SVG/1.1/DTD/svg11.dtd">
<!-- Generated by graphviz version 2.42.3 (20191010.1750)
 -->
<!-- Title: %3 Pages: 1 -->
<svg width="43200pt" height="4414pt"
 viewBox="0.00 0.00 43200.00 4414.27" xmlns="http://www.w3.org/2000/svg" xmlns:xlink="http://www.w3.org/1999/xlink">
<g id="graph0" class="graph" transform="scale(4.79 4.79) rotate(0) translate(4 21148)">
<title>%3</title>
<polygon fill="white" stroke="transparent" points="-4,4 -4,-21148 206998.96,-21148 206998.96,4 -4,4"/>
<!-- セルゲイ・ニコラーエヴィチ -->
<g id="node1" class="node">
<title>セルゲイ・ニコラーエヴィチ</title>
<ellipse fill="none" stroke="black" cx="65395.31" cy="-4320" rx="12960" ry="4320"/>
<text text-anchor="middle" x="65395.31" y="-4319.3" font-family="Times,serif" font-size="14.00">セルゲイ・ニコラーエヴィチ</text>
</g>
<!-- 可愛らしいお嬢さん -->
<g id="node5" class="node">
<title>可愛らしいお嬢さん</title>
<ellipse fill="none" stroke="black" cx="11880" cy="-4320" rx="11880" ry="3960"/>
<text text-anchor="middle" x="11880" y="-4319.3" font-family="Times,serif" font-size="14.00">可愛らしいお嬢さん</text>
</g>
<!-- セルゲイ・ニコラーエヴィチ&#45;&gt;可愛らしいお嬢さん -->
<g id="edge1" class="edge">
<title>セルゲイ・ニコラーエヴィチ&#45;&gt;可愛らしいお嬢さん</title>
<path fill="none" stroke="black" d="M52435.15,-4320C43702.28,-4320 32270.13,-4320 23770.31,-4320"/>
<polygon fill="black" stroke="black" points="23770.19,-4316.5 23760.19,-4320 23770.19,-4323.5 23770.19,-4316.5"/>
<text text-anchor="middle" x="38053.73" y="-4331.62" font-family="Times,serif" font-size="14.00">18の時に恋した</text>
</g>
<!-- 乳母 -->
<g id="node6" class="node">
<title>乳母</title>
<ellipse fill="none" stroke="black" cx="120090.86" cy="-4320" rx="11880" ry="3960"/>
<text text-anchor="middle" x="120090.86" y="-4319.3" font-family="Times,serif" font-size="14.00">乳母</text>
</g>
<!-- セルゲイ・ニコラーエヴィチ&#45;&gt;乳母 -->
<g id="edge2" class="edge">
<title>セルゲイ・ニコラーエヴィチ&#45;&gt;乳母</title>
<path fill="none" stroke="black" d="M78355.5,-4320C87405.68,-4320 99394.92,-4320 108200.57,-4320"/>
<polygon fill="black" stroke="black" points="108200.65,-4323.5 108210.65,-4320 108200.65,-4316.5 108200.65,-4323.5"/>
<text text-anchor="middle" x="93215.04" y="-4329.8" font-family="Times,serif" font-size="14.00">６歳のの時に恋した</text>
</g>
<!-- アンナ -->
<g id="node2" class="node">
<title>アンナ</title>
<ellipse fill="none" stroke="black" cx="86904" cy="-16824" rx="11880" ry="3960"/>
<text text-anchor="middle" x="86904" y="-16823.3" font-family="Times,serif" font-size="14.00">アンナ</text>
</g>
<!-- ヴラジーミル・ペトローヴィチ -->
<g id="node3" class="node">
<title>ヴラジーミル・ペトローヴィチ</title>
<ellipse fill="none" stroke="black" cx="195114.96" cy="-16824" rx="11880" ry="3960"/>
<text text-anchor="middle" x="195114.96" y="-16823.3" font-family="Times,serif" font-size="14.00">ヴラジーミル・ペトローヴィチ</text>
</g>
<!-- 主人 -->
<g id="node4" class="node">
<title>主人</title>
<ellipse fill="none" stroke="black" cx="141580.74" cy="-16824" rx="12960" ry="4320"/>
<text text-anchor="middle" x="141580.74" y="-16823.3" font-family="Times,serif" font-size="14.00">主人</text>
</g>
<!-- 主人&#45;&gt;アンナ -->
<g id="edge3" class="edge">
<title>主人&#45;&gt;アンナ</title>
<path fill="none" stroke="black" d="M128620.68,-16824C119575.45,-16824 107594.96,-16824 98794.1,-16824"/>
<polygon fill="black" stroke="black" points="98794.03,-16820.5 98784.03,-16824 98794.03,-16827.5 98794.03,-16820.5"/>
<text text-anchor="middle" x="113651.88" y="-16833.8" font-family="Times,serif" font-size="14.00">好きになって結婚</text>
</g>
<!-- 主人&#45;&gt;ヴラジーミル・ペトローヴィチ -->
<g id="edge4" class="edge">
<title>主人&#45;&gt;ヴラジーミル・ペトローヴィチ</title>
<path fill="none" stroke="black" d="M154540.95,-16824C163278.97,-16824 174720.07,-16824 183224.82,-16824"/>
<polygon fill="black" stroke="black" points="183224.95,-16827.5 183234.95,-16824 183224.95,-16820.5 183224.95,-16827.5"/>
<text text-anchor="middle" x="168819.89" y="-16833.8" font-family="Times,serif" font-size="14.00">初恋の話が聞きたい</text>
</g>
</g>
</svg>
