<?xml version="1.0" encoding="UTF-8" standalone="no"?>
<!DOCTYPE svg PUBLIC "-//W3C//DTD SVG 1.1//EN"
 "http://www.w3.org/Graphics/SVG/1.1/DTD/svg11.dtd">
<!-- Generated by graphviz version 2.42.3 (20191010.1750)
 -->
<!-- Title: %3 Pages: 1 -->
<svg width="43200pt" height="18359pt"
 viewBox="0.00 0.00 43200.00 18358.88" xmlns="http://www.w3.org/2000/svg" xmlns:xlink="http://www.w3.org/1999/xlink">
<g id="graph0" class="graph" transform="scale(5.81 5.81) rotate(0) translate(4 106732)">
<title>%3</title>
<polygon fill="white" stroke="transparent" points="-4,4 -4,-106732 251154.83,-106732 251154.83,4 -4,4"/>
<!-- セルゲイ・ニコラーエヴィチ -->
<g id="node1" class="node">
<title>セルゲイ・ニコラーエヴィチ</title>
<ellipse fill="none" stroke="black" cx="163483.31" cy="-102408" rx="12960" ry="4320"/>
<text text-anchor="middle" x="163483.31" y="-102407.3" font-family="Times,serif" font-size="14.00">セルゲイ・ニコラーエヴィチ</text>
</g>
<!-- 可愛らしいお嬢さん -->
<g id="node5" class="node">
<title>可愛らしいお嬢さん</title>
<ellipse fill="none" stroke="black" cx="109968" cy="-102408" rx="11880" ry="3960"/>
<text text-anchor="middle" x="109968" y="-102407.3" font-family="Times,serif" font-size="14.00">可愛らしいお嬢さん</text>
</g>
<!-- セルゲイ・ニコラーエヴィチ&#45;&gt;可愛らしいお嬢さん -->
<g id="edge1" class="edge">
<title>セルゲイ・ニコラーエヴィチ&#45;&gt;可愛らしいお嬢さん</title>
<path fill="none" stroke="black" d="M150523.15,-102408C141790.28,-102408 130358.13,-102408 121858.31,-102408"/>
<polygon fill="black" stroke="black" points="121858.19,-102404.5 121848.19,-102408 121858.19,-102411.5 121858.19,-102404.5"/>
<text text-anchor="middle" x="136141.73" y="-102419.62" font-family="Times,serif" font-size="14.00">18の時に恋した</text>
</g>
<!-- 乳母 -->
<g id="node6" class="node">
<title>乳母</title>
<ellipse fill="none" stroke="black" cx="218178.86" cy="-102408" rx="11880" ry="3960"/>
<text text-anchor="middle" x="218178.86" y="-102407.3" font-family="Times,serif" font-size="14.00">乳母</text>
</g>
<!-- セルゲイ・ニコラーエヴィチ&#45;&gt;乳母 -->
<g id="edge2" class="edge">
<title>セルゲイ・ニコラーエヴィチ&#45;&gt;乳母</title>
<path fill="none" stroke="black" d="M176443.5,-102408C185493.68,-102408 197482.92,-102408 206288.57,-102408"/>
<polygon fill="black" stroke="black" points="206288.65,-102411.5 206298.65,-102408 206288.65,-102404.5 206288.65,-102411.5"/>
<text text-anchor="middle" x="191303.04" y="-102417.8" font-family="Times,serif" font-size="14.00">６歳のの時に恋した</text>
</g>
<!-- アンナ -->
<g id="node2" class="node">
<title>アンナ</title>
<ellipse fill="none" stroke="black" cx="11880" cy="-48576.99" rx="11880" ry="3960"/>
<text text-anchor="middle" x="11880" y="-48576.29" font-family="Times,serif" font-size="14.00">アンナ</text>
</g>
<!-- ヴラジーミル・ペトローヴィチ -->
<g id="node3" class="node">
<title>ヴラジーミル・ペトローヴィチ</title>
<ellipse fill="none" stroke="black" cx="150611.88" cy="-49915.74" rx="17280" ry="5760"/>
<text text-anchor="middle" x="150611.88" y="-49915.04" font-family="Times,serif" font-size="14.00">ヴラジーミル・ペトローヴィチ</text>
</g>
<!-- 父 -->
<g id="node7" class="node">
<title>父</title>
<ellipse fill="none" stroke="black" cx="210481.39" cy="-85936.47" rx="15120" ry="5040"/>
<text text-anchor="middle" x="210481.39" y="-85935.77" font-family="Times,serif" font-size="14.00">父</text>
</g>
<!-- ヴラジーミル・ペトローヴィチ&#45;&gt;父 -->
<g id="edge8" class="edge">
<title>ヴラジーミル・ペトローヴィチ&#45;&gt;父</title>
<path fill="none" stroke="black" d="M158979.26,-54955.68C170737.71,-62033.23 191960.5,-74801.92 203138.27,-81523.84"/>
<polygon fill="black" stroke="black" points="203136.59,-81526.92 203146.97,-81529.07 203140.2,-81520.92 203136.59,-81526.92"/>
<text text-anchor="middle" x="180869.98" y="-68249.56" font-family="Times,serif" font-size="14.00">気どり澄ました、うぬぼれの強い、独りよがりの男だと思う</text>
</g>
<!-- ジナイーダ -->
<g id="node10" class="node">
<title>ジナイーダ</title>
<ellipse fill="none" stroke="black" cx="196275.76" cy="-4320" rx="12960" ry="4320"/>
<text text-anchor="middle" x="196275.76" y="-4319.3" font-family="Times,serif" font-size="14.00">ジナイーダ</text>
</g>
<!-- ヴラジーミル・ペトローヴィチ&#45;&gt;ジナイーダ -->
<g id="edge10" class="edge">
<title>ヴラジーミル・ペトローヴィチ&#45;&gt;ジナイーダ</title>
<path fill="none" stroke="black" d="M156083.85,-44451.93C165347.85,-35201.75 183916.3,-16661.02 192164.65,-8424.97"/>
<polygon fill="black" stroke="black" points="192167.22,-8427.35 192171.82,-8417.81 192162.27,-8422.4 192167.22,-8427.35"/>
<text text-anchor="middle" x="174061.25" y="-26448.25" font-family="Times,serif" font-size="14.00">知り合いになりたい</text>
</g>
<!-- 主人 -->
<g id="node4" class="node">
<title>主人</title>
<ellipse fill="none" stroke="black" cx="73382.08" cy="-49646.15" rx="12960" ry="4320"/>
<text text-anchor="middle" x="73382.08" y="-49645.45" font-family="Times,serif" font-size="14.00">主人</text>
</g>
<!-- 主人&#45;&gt;アンナ -->
<g id="edge3" class="edge">
<title>主人&#45;&gt;アンナ</title>
<path fill="none" stroke="black" d="M60439.43,-49421.15C49607.03,-49232.84 34276.02,-48966.32 23754.07,-48783.41"/>
<polygon fill="black" stroke="black" points="23754.01,-48779.91 23743.95,-48783.23 23753.89,-48786.91 23754.01,-48779.91"/>
<text text-anchor="middle" x="42041.24" y="-49112.08" font-family="Times,serif" font-size="14.00">好きになって結婚</text>
</g>
<!-- 主人&#45;&gt;ヴラジーミル・ペトローヴィチ -->
<g id="edge4" class="edge">
<title>主人&#45;&gt;ヴラジーミル・ペトローヴィチ</title>
<path fill="none" stroke="black" d="M86341.59,-49691.39C99233.39,-49736.39 119092.64,-49805.72 133322.69,-49855.39"/>
<polygon fill="black" stroke="black" points="133322.78,-49858.89 133332.79,-49855.43 133322.8,-49851.89 133322.78,-49858.89"/>
<text text-anchor="middle" x="109769.14" y="-49783.19" font-family="Times,serif" font-size="14.00">初恋の話が聞きたい</text>
</g>
<!-- 父&#45;&gt;ヴラジーミル・ペトローヴィチ -->
<g id="edge5" class="edge">
<title>父&#45;&gt;ヴラジーミル・ペトローヴィチ</title>
<path fill="none" stroke="black" d="M203160.38,-81526.37C191995.78,-74805.92 170773.1,-62037.12 159002.24,-54958.17"/>
<polygon fill="black" stroke="black" points="159003.99,-54955.14 158993.62,-54952.98 159000.39,-54961.14 159003.99,-54955.14"/>
<text text-anchor="middle" x="181158.31" y="-68252.07" font-family="Times,serif" font-size="14.00">親子関係、冷淡な優しさ</text>
</g>
<!-- 母 -->
<g id="node8" class="node">
<title>母</title>
<ellipse fill="none" stroke="black" cx="194488.11" cy="-60843.33" rx="15120" ry="5040"/>
<text text-anchor="middle" x="194488.11" y="-60842.63" font-family="Times,serif" font-size="14.00">母</text>
</g>
<!-- 父&#45;&gt;母 -->
<g id="edge7" class="edge">
<title>父&#45;&gt;母</title>
<path fill="none" stroke="black" d="M207339.22,-81006.48C204533.02,-76603.6 200443.67,-70187.49 197635.79,-65781.98"/>
<polygon fill="black" stroke="black" points="197638.71,-65780.06 197630.39,-65773.5 197632.81,-65783.82 197638.71,-65780.06"/>
<text text-anchor="middle" x="202431.86" y="-73404.03" font-family="Times,serif" font-size="14.00">財産目当ての結婚</text>
</g>
<!-- 母&#45;&gt;ヴラジーミル・ペトローヴィチ -->
<g id="edge6" class="edge">
<title>母&#45;&gt;ヴラジーミル・ペトローヴィチ</title>
<path fill="none" stroke="black" d="M182375.32,-57826.58C176823.44,-56443.86 170213.44,-54797.61 164464.66,-53365.85"/>
<polygon fill="black" stroke="black" points="164465.46,-53362.44 164454.92,-53363.42 164463.77,-53369.23 164465.46,-53362.44"/>
<text text-anchor="middle" x="173335.99" y="-55606.01" font-family="Times,serif" font-size="14.00">公爵夫人へのお使いを頼む</text>
</g>
<!-- ザセーキナ -->
<g id="node9" class="node">
<title>ザセーキナ</title>
<ellipse fill="none" stroke="black" cx="237110.83" cy="-40815.81" rx="14040" ry="4680"/>
<text text-anchor="middle" x="237110.83" y="-40815.11" font-family="Times,serif" font-size="14.00">ザセーキナ</text>
</g>
<!-- ザセーキナ&#45;&gt;父 -->
<g id="edge9" class="edge">
<title>ザセーキナ&#45;&gt;父</title>
<path fill="none" stroke="black" d="M234400.67,-45407.88C229363.44,-53942.91 218599.77,-72180.77 213405.26,-80982.29"/>
<polygon fill="black" stroke="black" points="213402.1,-80980.76 213400.03,-80991.15 213408.13,-80984.32 213402.1,-80980.76"/>
<text text-anchor="middle" x="223860.97" y="-63204.88" font-family="Times,serif" font-size="14.00">離れを借りる</text>
</g>
<!-- ザセーキナ&#45;&gt;母 -->
<g id="edge11" class="edge">
<title>ザセーキナ&#45;&gt;母</title>
<path fill="none" stroke="black" d="M228987.21,-44632.93C221623.93,-48092.78 210799.97,-53178.73 203245.94,-56728.21"/>
<polygon fill="black" stroke="black" points="203244.16,-56725.18 203236.6,-56732.6 203247.14,-56731.51 203244.16,-56725.18"/>
<text text-anchor="middle" x="216033.21" y="-50690.37" font-family="Times,serif" font-size="14.00">訴訟の手伝いをして欲しい</text>
</g>
<!-- ザセーキナ&#45;&gt;ジナイーダ -->
<g id="edge12" class="edge">
<title>ザセーキナ&#45;&gt;ジナイーダ</title>
<path fill="none" stroke="black" d="M232204.51,-36430.86C224224.32,-29298.66 208548.04,-15288.19 200812.79,-8374.91"/>
<polygon fill="black" stroke="black" points="200814.79,-8372.01 200805,-8367.95 200810.13,-8377.23 200814.79,-8372.01"/>
<text text-anchor="middle" x="216487.65" y="-22412.69" font-family="Times,serif" font-size="14.00">母ー娘</text>
</g>
</g>
</svg>
