<?xml version="1.0" encoding="UTF-8" standalone="no"?>
<!DOCTYPE svg PUBLIC "-//W3C//DTD SVG 1.1//EN"
 "http://www.w3.org/Graphics/SVG/1.1/DTD/svg11.dtd">
<!-- Generated by graphviz version 2.42.3 (20191010.1750)
 -->
<!-- Title: %3 Pages: 1 -->
<svg width="43200pt" height="18335pt"
 viewBox="0.00 0.00 43200.00 18334.60" xmlns="http://www.w3.org/2000/svg" xmlns:xlink="http://www.w3.org/1999/xlink">
<g id="graph0" class="graph" transform="scale(5.93 5.93) rotate(0) translate(4 108668)">
<title>%3</title>
<polygon fill="white" stroke="transparent" points="-4,4 -4,-108668 256049.09,-108668 256049.09,4 -4,4"/>
<!-- セルゲイ・ニコラーエヴィチ -->
<g id="node1" class="node">
<title>セルゲイ・ニコラーエヴィチ</title>
<ellipse fill="none" stroke="black" cx="165419.31" cy="-104344" rx="12960" ry="4320"/>
<text text-anchor="middle" x="165419.31" y="-104343.3" font-family="Times,serif" font-size="14.00">セルゲイ・ニコラーエヴィチ</text>
</g>
<!-- 可愛らしいお嬢さん -->
<g id="node5" class="node">
<title>可愛らしいお嬢さん</title>
<ellipse fill="none" stroke="black" cx="111904" cy="-104344" rx="11880" ry="3960"/>
<text text-anchor="middle" x="111904" y="-104343.3" font-family="Times,serif" font-size="14.00">可愛らしいお嬢さん</text>
</g>
<!-- セルゲイ・ニコラーエヴィチ&#45;&gt;可愛らしいお嬢さん -->
<g id="edge1" class="edge">
<title>セルゲイ・ニコラーエヴィチ&#45;&gt;可愛らしいお嬢さん</title>
<path fill="none" stroke="black" d="M152459.15,-104344C143726.28,-104344 132294.13,-104344 123794.31,-104344"/>
<polygon fill="black" stroke="black" points="123794.19,-104340.5 123784.19,-104344 123794.19,-104347.5 123794.19,-104340.5"/>
<text text-anchor="middle" x="138077.73" y="-104355.62" font-family="Times,serif" font-size="14.00">18の時に恋した</text>
</g>
<!-- 乳母 -->
<g id="node6" class="node">
<title>乳母</title>
<ellipse fill="none" stroke="black" cx="220114.86" cy="-104344" rx="11880" ry="3960"/>
<text text-anchor="middle" x="220114.86" y="-104343.3" font-family="Times,serif" font-size="14.00">乳母</text>
</g>
<!-- セルゲイ・ニコラーエヴィチ&#45;&gt;乳母 -->
<g id="edge2" class="edge">
<title>セルゲイ・ニコラーエヴィチ&#45;&gt;乳母</title>
<path fill="none" stroke="black" d="M178379.5,-104344C187429.68,-104344 199418.92,-104344 208224.57,-104344"/>
<polygon fill="black" stroke="black" points="208224.65,-104347.5 208234.65,-104344 208224.65,-104340.5 208224.65,-104347.5"/>
<text text-anchor="middle" x="193239.04" y="-104353.8" font-family="Times,serif" font-size="14.00">６歳のの時に恋した</text>
</g>
<!-- アンナ -->
<g id="node2" class="node">
<title>アンナ</title>
<ellipse fill="none" stroke="black" cx="11880" cy="-49898.69" rx="11880" ry="3960"/>
<text text-anchor="middle" x="11880" y="-49897.99" font-family="Times,serif" font-size="14.00">アンナ</text>
</g>
<!-- ヴラジーミル・ペトローヴィチ -->
<g id="node3" class="node">
<title>ヴラジーミル・ペトローヴィチ</title>
<ellipse fill="none" stroke="black" cx="153626.51" cy="-51266.54" rx="18360" ry="6120"/>
<text text-anchor="middle" x="153626.51" y="-51265.84" font-family="Times,serif" font-size="14.00">ヴラジーミル・ペトローヴィチ</text>
</g>
<!-- 父 -->
<g id="node7" class="node">
<title>父</title>
<ellipse fill="none" stroke="black" cx="214796.98" cy="-88069.99" rx="15120" ry="5040"/>
<text text-anchor="middle" x="214796.98" y="-88069.29" font-family="Times,serif" font-size="14.00">父</text>
</g>
<!-- ヴラジーミル・ペトローヴィチ&#45;&gt;父 -->
<g id="edge8" class="edge">
<title>ヴラジーミル・ペトローヴィチ&#45;&gt;父</title>
<path fill="none" stroke="black" d="M162516.89,-56621.22C174653.2,-63926.04 196182.87,-76879.32 207453.7,-83657.21"/>
<polygon fill="black" stroke="black" points="207452.1,-83660.33 207462.47,-83662.49 207455.7,-83654.34 207452.1,-83660.33"/>
<text text-anchor="middle" x="184796.51" y="-70149.02" font-family="Times,serif" font-size="14.00">気どり澄ました、うぬぼれの強い、独りよがりの男だと思う</text>
</g>
<!-- ジナイーダ -->
<g id="node10" class="node">
<title>ジナイーダ</title>
<ellipse fill="none" stroke="black" cx="200282.67" cy="-4680" rx="14040" ry="4680"/>
<text text-anchor="middle" x="200282.67" y="-4679.3" font-family="Times,serif" font-size="14.00">ジナイーダ</text>
</g>
<!-- ヴラジーミル・ペトローヴィチ&#45;&gt;ジナイーダ -->
<g id="edge10" class="edge">
<title>ヴラジーミル・ペトローヴィチ&#45;&gt;ジナイーダ</title>
<path fill="none" stroke="black" d="M159440.48,-45461.25C168882.88,-36032.93 187347.98,-17595.39 195829.36,-9126.66"/>
<polygon fill="black" stroke="black" points="195832.13,-9128.84 195836.73,-9119.3 195827.18,-9123.89 195832.13,-9128.84"/>
<text text-anchor="middle" x="177475.04" y="-27303.76" font-family="Times,serif" font-size="14.00">打ち解けられて嬉しい、子供扱いされてもどかしい</text>
</g>
<!-- 主人 -->
<g id="node4" class="node">
<title>主人</title>
<ellipse fill="none" stroke="black" cx="74718.51" cy="-50991.08" rx="12960" ry="4320"/>
<text text-anchor="middle" x="74718.51" y="-50990.38" font-family="Times,serif" font-size="14.00">主人</text>
</g>
<!-- 主人&#45;&gt;アンナ -->
<g id="edge3" class="edge">
<title>主人&#45;&gt;アンナ</title>
<path fill="none" stroke="black" d="M61776.01,-50766.09C50605.55,-50571.9 34602.03,-50293.69 23754.53,-50105.12"/>
<polygon fill="black" stroke="black" points="23754.16,-50101.61 23744.1,-50104.94 23754.03,-50108.61 23754.16,-50101.61"/>
<text text-anchor="middle" x="42709.76" y="-50445.4" font-family="Times,serif" font-size="14.00">好きになって結婚</text>
</g>
<!-- 主人&#45;&gt;ヴラジーミル・ペトローヴィチ -->
<g id="edge4" class="edge">
<title>主人&#45;&gt;ヴラジーミル・ペトローヴィチ</title>
<path fill="none" stroke="black" d="M87678.14,-51036.32C100631.34,-51081.54 120667.73,-51151.48 135257.34,-51202.41"/>
<polygon fill="black" stroke="black" points="135257.34,-51205.91 135267.36,-51202.45 135257.37,-51198.91 135257.34,-51205.91"/>
<text text-anchor="middle" x="111404.74" y="-51129.17" font-family="Times,serif" font-size="14.00">初恋の話が聞きたい</text>
</g>
<!-- 父&#45;&gt;ヴラジーミル・ペトローヴィチ -->
<g id="edge5" class="edge">
<title>父&#45;&gt;ヴラジーミル・ペトローヴィチ</title>
<path fill="none" stroke="black" d="M207475.82,-83659.85C196218.36,-76883.51 174689.05,-63930.18 162540.5,-56623.92"/>
<polygon fill="black" stroke="black" points="162542.25,-56620.89 162531.88,-56618.73 162538.65,-56626.89 162542.25,-56620.89"/>
<text text-anchor="middle" x="185085.16" y="-70151.68" font-family="Times,serif" font-size="14.00">親子関係、冷淡な優しさ</text>
</g>
<!-- 母 -->
<g id="node8" class="node">
<title>母</title>
<ellipse fill="none" stroke="black" cx="198456.17" cy="-62431.58" rx="15120" ry="5040"/>
<text text-anchor="middle" x="198456.17" y="-62430.88" font-family="Times,serif" font-size="14.00">母</text>
</g>
<!-- 父&#45;&gt;母 -->
<g id="edge7" class="edge">
<title>父&#45;&gt;母</title>
<path fill="none" stroke="black" d="M211654.78,-83139.93C208763.35,-78603.34 204497.32,-71910.02 201604.09,-67370.59"/>
<polygon fill="black" stroke="black" points="201606.85,-67368.42 201598.52,-67361.86 201600.95,-67372.18 201606.85,-67368.42"/>
<text text-anchor="middle" x="206573.78" y="-75265.06" font-family="Times,serif" font-size="14.00">財産目当ての結婚</text>
</g>
<!-- 母&#45;&gt;ヴラジーミル・ペトローヴィチ -->
<g id="edge6" class="edge">
<title>母&#45;&gt;ヴラジーミル・ペトローヴィチ</title>
<path fill="none" stroke="black" d="M186343.55,-59414.87C180797.22,-58033.53 174175.4,-56384.34 168344.5,-54932.12"/>
<polygon fill="black" stroke="black" points="168345.17,-54928.68 168334.62,-54929.66 168343.47,-54935.47 168345.17,-54928.68"/>
<text text-anchor="middle" x="177260.02" y="-57183.3" font-family="Times,serif" font-size="14.00">公爵夫人へのお使いを頼む</text>
</g>
<!-- ザセーキナ -->
<g id="node9" class="node">
<title>ザセーキナ</title>
<ellipse fill="none" stroke="black" cx="242005.09" cy="-41968.86" rx="14040" ry="4680"/>
<text text-anchor="middle" x="242005.09" y="-41968.16" font-family="Times,serif" font-size="14.00">ザセーキナ</text>
</g>
<!-- ザセーキナ&#45;&gt;父 -->
<g id="edge9" class="edge">
<title>ザセーキナ&#45;&gt;父</title>
<path fill="none" stroke="black" d="M239294.84,-46561.08C234153.09,-55273.21 223023.53,-74131.02 217720.76,-83115.98"/>
<polygon fill="black" stroke="black" points="217717.73,-83114.22 217715.66,-83124.61 217723.76,-83117.78 217717.73,-83114.22"/>
<text text-anchor="middle" x="228465.8" y="-64848.33" font-family="Times,serif" font-size="14.00">離れを借りる</text>
</g>
<!-- ザセーキナ&#45;&gt;母 -->
<g id="edge11" class="edge">
<title>ザセーキナ&#45;&gt;母</title>
<path fill="none" stroke="black" d="M233881.29,-45786.06C226293.77,-49351.28 214999.99,-54657.99 207214.1,-58316.41"/>
<polygon fill="black" stroke="black" points="207212.4,-58313.35 207204.84,-58320.77 207215.38,-58319.68 207212.4,-58313.35"/>
<text text-anchor="middle" x="220464.33" y="-52061.04" font-family="Times,serif" font-size="14.00">訴訟の手伝いをして欲しい</text>
</g>
<!-- ザセーキナ&#45;&gt;ジナイーダ -->
<g id="edge12" class="edge">
<title>ザセーキナ&#45;&gt;ジナイーダ</title>
<path fill="none" stroke="black" d="M237098.55,-37583.72C229072.47,-30410.51 213227.69,-16249.45 205196.73,-9071.88"/>
<polygon fill="black" stroke="black" points="205198.79,-9069.03 205189.01,-9064.98 205194.13,-9074.25 205198.79,-9069.03"/>
<text text-anchor="middle" x="221126.64" y="-23337.6" font-family="Times,serif" font-size="14.00">母ー娘</text>
</g>
</g>
</svg>
