<?xml version="1.0" encoding="UTF-8" standalone="no"?>
<!DOCTYPE svg PUBLIC "-//W3C//DTD SVG 1.1//EN"
 "http://www.w3.org/Graphics/SVG/1.1/DTD/svg11.dtd">
<!-- Generated by graphviz version 2.42.3 (20191010.1750)
 -->
<!-- Title: %3 Pages: 1 -->
<svg width="43200pt" height="22717pt"
 viewBox="0.00 0.00 43200.00 22717.08" xmlns="http://www.w3.org/2000/svg" xmlns:xlink="http://www.w3.org/1999/xlink">
<g id="graph0" class="graph" transform="scale(6.54 6.54) rotate(0) translate(4 148618.73)">
<title>%3</title>
<polygon fill="white" stroke="transparent" points="-4,4 -4,-148618.73 282624.86,-148618.73 282624.86,4 -4,4"/>
<!-- セルゲイ・ニコラーエヴィチ -->
<g id="node1" class="node">
<title>セルゲイ・ニコラーエヴィチ</title>
<ellipse fill="none" stroke="black" cx="216045.31" cy="-109775" rx="12960" ry="4320"/>
<text text-anchor="middle" x="216045.31" y="-109774.3" font-family="Times,serif" font-size="14.00">セルゲイ・ニコラーエヴィチ</text>
</g>
<!-- 可愛らしいお嬢さん -->
<g id="node5" class="node">
<title>可愛らしいお嬢さん</title>
<ellipse fill="none" stroke="black" cx="162530" cy="-109775" rx="11880" ry="3960"/>
<text text-anchor="middle" x="162530" y="-109774.3" font-family="Times,serif" font-size="14.00">可愛らしいお嬢さん</text>
</g>
<!-- セルゲイ・ニコラーエヴィチ&#45;&gt;可愛らしいお嬢さん -->
<g id="edge1" class="edge">
<title>セルゲイ・ニコラーエヴィチ&#45;&gt;可愛らしいお嬢さん</title>
<path fill="none" stroke="black" d="M203085.15,-109775C194352.28,-109775 182920.13,-109775 174420.31,-109775"/>
<polygon fill="black" stroke="black" points="174420.19,-109771.5 174410.19,-109775 174420.19,-109778.5 174420.19,-109771.5"/>
<text text-anchor="middle" x="188703.73" y="-109786.62" font-family="Times,serif" font-size="14.00">18の時に恋した</text>
</g>
<!-- 乳母 -->
<g id="node6" class="node">
<title>乳母</title>
<ellipse fill="none" stroke="black" cx="270740.86" cy="-109775" rx="11880" ry="3960"/>
<text text-anchor="middle" x="270740.86" y="-109774.3" font-family="Times,serif" font-size="14.00">乳母</text>
</g>
<!-- セルゲイ・ニコラーエヴィチ&#45;&gt;乳母 -->
<g id="edge2" class="edge">
<title>セルゲイ・ニコラーエヴィチ&#45;&gt;乳母</title>
<path fill="none" stroke="black" d="M229005.5,-109775C238055.68,-109775 250044.92,-109775 258850.57,-109775"/>
<polygon fill="black" stroke="black" points="258850.65,-109778.5 258860.65,-109775 258850.65,-109771.5 258850.65,-109778.5"/>
<text text-anchor="middle" x="243865.04" y="-109784.8" font-family="Times,serif" font-size="14.00">６歳のの時に恋した</text>
</g>
<!-- アンナ -->
<g id="node2" class="node">
<title>アンナ</title>
<ellipse fill="none" stroke="black" cx="230424.51" cy="-57827.98" rx="11880" ry="3960"/>
<text text-anchor="middle" x="230424.51" y="-57827.28" font-family="Times,serif" font-size="14.00">アンナ</text>
</g>
<!-- ヴラジーミル・ペトローヴィチ -->
<g id="node3" class="node">
<title>ヴラジーミル・ペトローヴィチ</title>
<ellipse fill="none" stroke="black" cx="103984.51" cy="-92549.69" rx="18360" ry="6120"/>
<text text-anchor="middle" x="103984.51" y="-92548.99" font-family="Times,serif" font-size="14.00">ヴラジーミル・ペトローヴィチ</text>
</g>
<!-- 父 -->
<g id="node7" class="node">
<title>父</title>
<ellipse fill="none" stroke="black" cx="89582.2" cy="-135435.03" rx="15120" ry="5040"/>
<text text-anchor="middle" x="89582.2" y="-135434.33" font-family="Times,serif" font-size="14.00">父</text>
</g>
<!-- ヴラジーミル・ペトローヴィチ&#45;&gt;父 -->
<g id="edge8" class="edge">
<title>ヴラジーミル・ペトローヴィチ&#45;&gt;父</title>
<path fill="none" stroke="black" d="M101936.81,-98631.74C99070.71,-107157.87 93916.95,-122504.43 91262.91,-130416.19"/>
<polygon fill="black" stroke="black" points="91259.49,-130415.38 91259.63,-130425.97 91266.13,-130417.6 91259.49,-130415.38"/>
<text text-anchor="middle" x="96411.07" y="-114533.77" font-family="Times,serif" font-size="14.00">気どり澄ました、うぬぼれの強い、独りよがりの男だと思う</text>
</g>
<!-- ジナイーダ -->
<g id="node10" class="node">
<title>ジナイーダ</title>
<ellipse fill="none" stroke="black" cx="45639.38" cy="-55424.75" rx="15120" ry="5040"/>
<text text-anchor="middle" x="45639.38" y="-55424.05" font-family="Times,serif" font-size="14.00">ジナイーダ</text>
</g>
<!-- ヴラジーミル・ペトローヴィチ&#45;&gt;ジナイーダ -->
<g id="edge10" class="edge">
<title>ヴラジーミル・ペトローヴィチ&#45;&gt;ジナイーダ</title>
<path fill="none" stroke="black" d="M95464.52,-87128.43C83889.12,-79763.01 63408.34,-66731.11 52664.75,-59894.98"/>
<polygon fill="black" stroke="black" points="52666.21,-59891.76 52655.9,-59889.35 52662.46,-59897.67 52666.21,-59891.76"/>
<text text-anchor="middle" x="73904.76" y="-73521.51" font-family="Times,serif" font-size="14.00">打ち解けられて嬉しい、子供扱いされてもどかしい</text>
</g>
<!-- 主人 -->
<g id="node4" class="node">
<title>主人</title>
<ellipse fill="none" stroke="black" cx="175855.93" cy="-73789.14" rx="12960" ry="4320"/>
<text text-anchor="middle" x="175855.93" y="-73788.44" font-family="Times,serif" font-size="14.00">主人</text>
</g>
<!-- 主人&#45;&gt;アンナ -->
<g id="edge3" class="edge">
<title>主人&#45;&gt;アンナ</title>
<path fill="none" stroke="black" d="M185597.44,-70939.78C195777.51,-67962.13 211614.59,-63329.83 221484.81,-60442.82"/>
<polygon fill="black" stroke="black" points="221486.14,-60446.08 221494.75,-60439.91 221484.17,-60439.36 221486.14,-60446.08"/>
<text text-anchor="middle" x="203485.61" y="-65701.1" font-family="Times,serif" font-size="14.00">好きになって結婚</text>
</g>
<!-- 主人&#45;&gt;ヴラジーミル・ペトローヴィチ -->
<g id="edge4" class="edge">
<title>主人&#45;&gt;ヴラジーミル・ペトローヴィチ</title>
<path fill="none" stroke="black" d="M165652.1,-76452.64C153308.95,-79674.56 132448.01,-85119.88 118449.78,-88773.83"/>
<polygon fill="black" stroke="black" points="118448.64,-88770.51 118439.85,-88776.42 118450.41,-88777.28 118448.64,-88770.51"/>
<text text-anchor="middle" x="141987.94" y="-82623.03" font-family="Times,serif" font-size="14.00">初恋の話が聞きたい</text>
</g>
<!-- 父&#45;&gt;ヴラジーミル・ペトローヴィチ -->
<g id="edge5" class="edge">
<title>父&#45;&gt;ヴラジーミル・ペトローヴィチ</title>
<path fill="none" stroke="black" d="M91269.02,-130426.46C93926.98,-122520.85 99081.17,-107173.73 101943.7,-98641.89"/>
<polygon fill="black" stroke="black" points="101947.11,-98642.72 101946.98,-98632.13 101940.48,-98640.49 101947.11,-98642.72"/>
<text text-anchor="middle" x="96683.36" y="-114543.98" font-family="Times,serif" font-size="14.00">親子関係、冷淡な優しさ</text>
</g>
<!-- 母 -->
<g id="node8" class="node">
<title>母</title>
<ellipse fill="none" stroke="black" cx="62011.11" cy="-143574.73" rx="15120" ry="5040"/>
<text text-anchor="middle" x="62011.11" y="-143574.03" font-family="Times,serif" font-size="14.00">母</text>
</g>
<!-- 父&#45;&gt;母 -->
<g id="edge7" class="edge">
<title>父&#45;&gt;母</title>
<path fill="none" stroke="black" d="M78263.25,-138776.68C76638.02,-139256.49 74965.52,-139750.25 73340.11,-140230.12"/>
<polygon fill="black" stroke="black" points="73338.87,-140226.84 73330.27,-140233.02 73340.85,-140233.55 73338.87,-140226.84"/>
<text text-anchor="middle" x="75746.03" y="-139513.2" font-family="Times,serif" font-size="14.00">財産目当ての結婚</text>
</g>
<!-- 母&#45;&gt;ヴラジーミル・ペトローヴィチ -->
<g id="edge6" class="edge">
<title>母&#45;&gt;ヴラジーミル・ペトローヴィチ</title>
<path fill="none" stroke="black" d="M66009.57,-138714.01C73748,-129306.76 90746.02,-108643.09 99122.75,-98459.89"/>
<polygon fill="black" stroke="black" points="99125.62,-98461.92 99129.27,-98451.97 99120.22,-98457.47 99125.62,-98461.92"/>
<text text-anchor="middle" x="82482.16" y="-118596.75" font-family="Times,serif" font-size="14.00">公爵夫人へのお使いを頼む</text>
</g>
<!-- ザセーキナ -->
<g id="node9" class="node">
<title>ザセーキナ</title>
<ellipse fill="none" stroke="black" cx="38539.03" cy="-111040.61" rx="14040" ry="4680"/>
<text text-anchor="middle" x="38539.03" y="-111039.91" font-family="Times,serif" font-size="14.00">ザセーキナ</text>
</g>
<!-- ザセーキナ&#45;&gt;父 -->
<g id="edge9" class="edge">
<title>ザセーキナ&#45;&gt;父</title>
<path fill="none" stroke="black" d="M46571.12,-114879.29C55922.93,-119348.68 71311.12,-126702.96 80923.23,-131296.76"/>
<polygon fill="black" stroke="black" points="80921.94,-131300.02 80932.47,-131301.17 80924.96,-131293.7 80921.94,-131300.02"/>
<text text-anchor="middle" x="63705.17" y="-123097.82" font-family="Times,serif" font-size="14.00">離れを借りる</text>
</g>
<!-- ザセーキナ&#45;&gt;母 -->
<g id="edge11" class="edge">
<title>ザセーキナ&#45;&gt;母</title>
<path fill="none" stroke="black" d="M41822.03,-115591.1C46209.43,-121672.37 53954.52,-132407.67 58469.49,-138665.77"/>
<polygon fill="black" stroke="black" points="58466.8,-138668.02 58475.49,-138674.08 58472.48,-138663.92 58466.8,-138668.02"/>
<text text-anchor="middle" x="50062.39" y="-127138.24" font-family="Times,serif" font-size="14.00">訴訟の手伝いをして欲しい</text>
</g>
<!-- ザセーキナ&#45;&gt;ジナイーダ -->
<g id="edge12" class="edge">
<title>ザセーキナ&#45;&gt;ジナイーダ</title>
<path fill="none" stroke="black" d="M39136,-106364.69C40459.2,-96000.29 43629.24,-71169.84 44995.19,-60470.62"/>
<polygon fill="black" stroke="black" points="44998.71,-60470.7 44996.5,-60460.34 44991.76,-60469.81 44998.71,-60470.7"/>
<text text-anchor="middle" x="42044.59" y="-83427.46" font-family="Times,serif" font-size="14.00">母ー娘</text>
</g>
<!-- ベロヴゾーロフ -->
<g id="node11" class="node">
<title>ベロヴゾーロフ</title>
<ellipse fill="none" stroke="black" cx="11880" cy="-3960" rx="11880" ry="3960"/>
<text text-anchor="middle" x="11880" y="-3959.3" font-family="Times,serif" font-size="14.00">ベロヴゾーロフ</text>
</g>
<!-- ベロヴゾーロフ&#45;&gt;ジナイーダ -->
<g id="edge13" class="edge">
<title>ベロヴゾーロフ&#45;&gt;ジナイーダ</title>
<path fill="none" stroke="black" d="M14417.87,-7828.88C20463.62,-17045.37 35710.38,-40288.4 42403.89,-50492.38"/>
<polygon fill="black" stroke="black" points="42401,-50494.34 42409.41,-50500.78 42406.85,-50490.5 42401,-50494.34"/>
<text text-anchor="middle" x="28327.65" y="-29170.43" font-family="Times,serif" font-size="14.00">猫の子を持ってきてくれる</text>
</g>
</g>
</svg>
