<?xml version="1.0" encoding="UTF-8" standalone="no"?>
<!DOCTYPE svg PUBLIC "-//W3C//DTD SVG 1.1//EN"
 "http://www.w3.org/Graphics/SVG/1.1/DTD/svg11.dtd">
<!-- Generated by graphviz version 2.42.3 (20191010.1750)
 -->
<!-- Title: %3 Pages: 1 -->
<svg width="43200pt" height="23693pt"
 viewBox="0.00 0.00 43200.00 23692.54" xmlns="http://www.w3.org/2000/svg" xmlns:xlink="http://www.w3.org/1999/xlink">
<g id="graph0" class="graph" transform="scale(7.08 7.08) rotate(0) translate(4 167648.59)">
<title>%3</title>
<polygon fill="white" stroke="transparent" points="-4,4 -4,-167648.59 305686.86,-167648.59 305686.86,4 -4,4"/>
<!-- セルゲイ・ニコラーエヴィチ -->
<g id="node1" class="node">
<title>セルゲイ・ニコラーエヴィチ</title>
<ellipse fill="none" stroke="black" cx="239107.31" cy="-114864" rx="12960" ry="4320"/>
<text text-anchor="middle" x="239107.31" y="-114863.3" font-family="Times,serif" font-size="14.00">セルゲイ・ニコラーエヴィチ</text>
</g>
<!-- 可愛らしいお嬢さん -->
<g id="node5" class="node">
<title>可愛らしいお嬢さん</title>
<ellipse fill="none" stroke="black" cx="185592" cy="-114864" rx="11880" ry="3960"/>
<text text-anchor="middle" x="185592" y="-114863.3" font-family="Times,serif" font-size="14.00">可愛らしいお嬢さん</text>
</g>
<!-- セルゲイ・ニコラーエヴィチ&#45;&gt;可愛らしいお嬢さん -->
<g id="edge1" class="edge">
<title>セルゲイ・ニコラーエヴィチ&#45;&gt;可愛らしいお嬢さん</title>
<path fill="none" stroke="black" d="M226147.15,-114864C217414.28,-114864 205982.13,-114864 197482.31,-114864"/>
<polygon fill="black" stroke="black" points="197482.19,-114860.5 197472.19,-114864 197482.19,-114867.5 197482.19,-114860.5"/>
<text text-anchor="middle" x="211765.73" y="-114875.62" font-family="Times,serif" font-size="14.00">18の時に恋した</text>
</g>
<!-- 乳母 -->
<g id="node6" class="node">
<title>乳母</title>
<ellipse fill="none" stroke="black" cx="293802.86" cy="-114864" rx="11880" ry="3960"/>
<text text-anchor="middle" x="293802.86" y="-114863.3" font-family="Times,serif" font-size="14.00">乳母</text>
</g>
<!-- セルゲイ・ニコラーエヴィチ&#45;&gt;乳母 -->
<g id="edge2" class="edge">
<title>セルゲイ・ニコラーエヴィチ&#45;&gt;乳母</title>
<path fill="none" stroke="black" d="M252067.5,-114864C261117.68,-114864 273106.92,-114864 281912.57,-114864"/>
<polygon fill="black" stroke="black" points="281912.65,-114867.5 281922.65,-114864 281912.65,-114860.5 281912.65,-114867.5"/>
<text text-anchor="middle" x="266927.04" y="-114873.8" font-family="Times,serif" font-size="14.00">６歳のの時に恋した</text>
</g>
<!-- アンナ -->
<g id="node2" class="node">
<title>アンナ</title>
<ellipse fill="none" stroke="black" cx="11880" cy="-11902.2" rx="11880" ry="3960"/>
<text text-anchor="middle" x="11880" y="-11901.5" font-family="Times,serif" font-size="14.00">アンナ</text>
</g>
<!-- ヴラジーミル・ペトローヴィチ -->
<g id="node3" class="node">
<title>ヴラジーミル・ペトローヴィチ</title>
<ellipse fill="none" stroke="black" cx="144384.03" cy="-59094.89" rx="18360" ry="6120"/>
<text text-anchor="middle" x="144384.03" y="-59094.19" font-family="Times,serif" font-size="14.00">ヴラジーミル・ペトローヴィチ</text>
</g>
<!-- 父 -->
<g id="node7" class="node">
<title>父</title>
<ellipse fill="none" stroke="black" cx="211814.87" cy="-41504.06" rx="16200" ry="5400"/>
<text text-anchor="middle" x="211814.87" y="-41503.36" font-family="Times,serif" font-size="14.00">父</text>
</g>
<!-- ヴラジーミル・ペトローヴィチ&#45;&gt;父 -->
<g id="edge8" class="edge">
<title>ヴラジーミル・ペトローヴィチ&#45;&gt;父</title>
<path fill="none" stroke="black" d="M158851.39,-55326.6C170801.13,-52210.83 187601.8,-47827.92 199055.54,-44838.22"/>
<polygon fill="black" stroke="black" points="199056.45,-44841.6 199065.24,-44835.69 199054.68,-44834.83 199056.45,-44841.6"/>
<text text-anchor="middle" x="178764.68" y="-50092.21" font-family="Times,serif" font-size="14.00">気どり澄ました、うぬぼれの強い、独りよがりの男だと思う</text>
</g>
<!-- ジナイーダ -->
<g id="node10" class="node">
<title>ジナイーダ</title>
<ellipse fill="none" stroke="black" cx="139221" cy="-115668.02" rx="15120" ry="5040"/>
<text text-anchor="middle" x="139221" y="-115667.32" font-family="Times,serif" font-size="14.00">ジナイーダ</text>
</g>
<!-- ヴラジーミル・ペトローヴィチ&#45;&gt;ジナイーダ -->
<g id="edge10" class="edge">
<title>ヴラジーミル・ペトローヴィチ&#45;&gt;ジナイーダ</title>
<path fill="none" stroke="black" d="M143825.75,-65212.21C142799.21,-76460.32 140630.4,-100224.72 139681.67,-110620.35"/>
<polygon fill="black" stroke="black" points="139678.18,-110620.07 139680.76,-110630.34 139685.15,-110620.7 139678.18,-110620.07"/>
<text text-anchor="middle" x="141593.83" y="-87926.08" font-family="Times,serif" font-size="14.00">打ち解けられて嬉しい、子供扱いされてもどかしい</text>
</g>
<!-- 主人 -->
<g id="node4" class="node">
<title>主人</title>
<ellipse fill="none" stroke="black" cx="69861.98" cy="-26495.52" rx="12960" ry="4320"/>
<text text-anchor="middle" x="69861.98" y="-26494.82" font-family="Times,serif" font-size="14.00">主人</text>
</g>
<!-- 主人&#45;&gt;アンナ -->
<g id="edge3" class="edge">
<title>主人&#45;&gt;アンナ</title>
<path fill="none" stroke="black" d="M59518.95,-23892.31C48699.7,-21169.24 31860.71,-16931.09 21371.1,-14290.98"/>
<polygon fill="black" stroke="black" points="21371.56,-14287.49 21361.01,-14288.45 21369.86,-14294.28 21371.56,-14287.49"/>
<text text-anchor="middle" x="40389.51" y="-19101.45" font-family="Times,serif" font-size="14.00">好きになって結婚</text>
</g>
<!-- 主人&#45;&gt;ヴラジーミル・ペトローヴィチ -->
<g id="edge4" class="edge">
<title>主人&#45;&gt;ヴラジーミル・ペトローヴィチ</title>
<path fill="none" stroke="black" d="M77717.14,-29931.72C91015.81,-35749.17 118001.98,-47554.16 133246.66,-54222.89"/>
<polygon fill="black" stroke="black" points="133245.52,-54226.21 133256.08,-54227.01 133248.32,-54219.79 133245.52,-54226.21"/>
<text text-anchor="middle" x="105418.9" y="-42087.11" font-family="Times,serif" font-size="14.00">初恋の話が聞きたい</text>
</g>
<!-- 父&#45;&gt;ヴラジーミル・ペトローヴィチ -->
<g id="edge5" class="edge">
<title>父&#45;&gt;ヴラジーミル・ペトローヴィチ</title>
<path fill="none" stroke="black" d="M199049.14,-44828.68C187593.19,-47815.48 170791.99,-52198.36 158844.01,-55316.84"/>
<polygon fill="black" stroke="black" points="158842.95,-55313.49 158834.16,-55319.41 158844.72,-55320.27 158842.95,-55313.49"/>
<text text-anchor="middle" x="178869.58" y="-50061.56" font-family="Times,serif" font-size="14.00">親子関係、冷淡な優しさ</text>
</g>
<!-- 母 -->
<g id="node8" class="node">
<title>母</title>
<ellipse fill="none" stroke="black" cx="209460.35" cy="-89334.5" rx="16200" ry="5400"/>
<text text-anchor="middle" x="209460.35" y="-89333.8" font-family="Times,serif" font-size="14.00">母</text>
</g>
<!-- 父&#45;&gt;母 -->
<g id="edge7" class="edge">
<title>父&#45;&gt;母</title>
<path fill="none" stroke="black" d="M211549.07,-46903.64C211096.14,-56104.47 210179.9,-74717.32 209726.64,-83924.95"/>
<polygon fill="black" stroke="black" points="209723.14,-83924.9 209726.14,-83935.06 209730.13,-83925.25 209723.14,-83924.9"/>
<text text-anchor="middle" x="210582.2" y="-65424.09" font-family="Times,serif" font-size="14.00">財産目当ての結婚</text>
</g>
<!-- 公爵 -->
<g id="node12" class="node">
<title>公爵</title>
<ellipse fill="none" stroke="black" cx="224782.44" cy="-4320" rx="12960" ry="4320"/>
<text text-anchor="middle" x="224782.44" y="-4319.3" font-family="Times,serif" font-size="14.00">公爵</text>
</g>
<!-- 父&#45;&gt;公爵 -->
<g id="edge15" class="edge">
<title>父&#45;&gt;公爵</title>
<path fill="none" stroke="black" d="M213685.54,-36139.99C216276.19,-28711.38 220905.06,-15438.26 223282.47,-8621.1"/>
<polygon fill="black" stroke="black" points="223285.86,-8622.02 223285.85,-8611.42 223279.25,-8619.71 223285.86,-8622.02"/>
<text text-anchor="middle" x="218372" y="-22390.34" font-family="Times,serif" font-size="14.00">教育はあるが薄っぺらい男だと思う</text>
</g>
<!-- 母&#45;&gt;ヴラジーミル・ペトローヴィチ -->
<g id="edge6" class="edge">
<title>母&#45;&gt;ヴラジーミル・ペトローヴィチ</title>
<path fill="none" stroke="black" d="M200017.53,-84946.62C188085.06,-79401.85 167599.69,-69882.72 155095.25,-64072.17"/>
<polygon fill="black" stroke="black" points="155096.63,-64068.95 155086.09,-64067.91 155093.68,-64075.3 155096.63,-64068.95"/>
<text text-anchor="middle" x="177472.39" y="-74519.19" font-family="Times,serif" font-size="14.00">公爵夫人へのお使いを頼む</text>
</g>
<!-- ザセーキナ -->
<g id="node9" class="node">
<title>ザセーキナ</title>
<ellipse fill="none" stroke="black" cx="190142.81" cy="-63616.75" rx="16200" ry="5400"/>
<text text-anchor="middle" x="190142.81" y="-63616.05" font-family="Times,serif" font-size="14.00">ザセーキナ</text>
</g>
<!-- 母&#45;&gt;ザセーキナ -->
<g id="edge14" class="edge">
<title>母&#45;&gt;ザセーキナ</title>
<path fill="none" stroke="black" d="M205531.95,-84095.31C202196.02,-79651.49 197431.64,-73308.59 194090.28,-68862.82"/>
<polygon fill="black" stroke="black" points="194092.97,-68860.57 194084.16,-68854.68 194087.37,-68864.77 194092.97,-68860.57"/>
<text text-anchor="middle" x="199741.12" y="-76488.86" font-family="Times,serif" font-size="14.00">俗っぽい女でうんざり</text>
</g>
<!-- ザセーキナ&#45;&gt;父 -->
<g id="edge9" class="edge">
<title>ザセーキナ&#45;&gt;父</title>
<path fill="none" stroke="black" d="M195173.98,-58483.29C198661.75,-54924.61 203287.87,-50204.44 206777.07,-46644.29"/>
<polygon fill="black" stroke="black" points="206779.6,-46646.71 206784.1,-46637.11 206774.6,-46641.81 206779.6,-46646.71"/>
<text text-anchor="middle" x="200933.53" y="-52573.59" font-family="Times,serif" font-size="14.00">離れを借りる</text>
</g>
<!-- ザセーキナ&#45;&gt;母 -->
<g id="edge11" class="edge">
<title>ザセーキナ&#45;&gt;母</title>
<path fill="none" stroke="black" d="M194071.21,-68855.95C197407.14,-73299.76 202171.52,-79642.66 205512.88,-84088.44"/>
<polygon fill="black" stroke="black" points="205510.19,-84090.69 205519,-84096.58 205515.79,-84086.48 205510.19,-84090.69"/>
<text text-anchor="middle" x="199708.67" y="-76460.99" font-family="Times,serif" font-size="14.00">訴訟の手伝いをして欲しい</text>
</g>
<!-- ザセーキナ&#45;&gt;ジナイーダ -->
<g id="edge12" class="edge">
<title>ザセーキナ&#45;&gt;ジナイーダ</title>
<path fill="none" stroke="black" d="M185120.14,-68750.83C175261.23,-78828.42 153504.12,-101068.11 143915.74,-110869.15"/>
<polygon fill="black" stroke="black" points="143913.21,-110866.74 143908.72,-110876.33 143918.21,-110871.63 143913.21,-110866.74"/>
<text text-anchor="middle" x="164496.94" y="-89819.79" font-family="Times,serif" font-size="14.00">母ー娘</text>
</g>
<!-- ベロヴゾーロフ -->
<g id="node11" class="node">
<title>ベロヴゾーロフ</title>
<ellipse fill="none" stroke="black" cx="96760.72" cy="-163684.59" rx="11880" ry="3960"/>
<text text-anchor="middle" x="96760.72" y="-163683.89" font-family="Times,serif" font-size="14.00">ベロヴゾーロフ</text>
</g>
<!-- ベロヴゾーロフ&#45;&gt;ジナイーダ -->
<g id="edge13" class="edge">
<title>ベロヴゾーロフ&#45;&gt;ジナイーダ</title>
<path fill="none" stroke="black" d="M100119.66,-159886.09C107769,-151235.78 126476.43,-130080.33 134938.94,-120510.43"/>
<polygon fill="black" stroke="black" points="134941.91,-120512.35 134945.91,-120502.54 134936.67,-120507.72 134941.91,-120512.35"/>
<text text-anchor="middle" x="117446.07" y="-140208.06" font-family="Times,serif" font-size="14.00">猫の子を持ってきてくれる</text>
</g>
<!-- 公爵&#45;&gt;ザセーキナ -->
<g id="edge16" class="edge">
<title>公爵&#45;&gt;ザセーキナ</title>
<path fill="none" stroke="black" d="M222305.14,-8560.68C216125.58,-19138.97 200039.59,-46675.26 193244.47,-58307.28"/>
<polygon fill="black" stroke="black" points="193241.36,-58305.66 193239.34,-58316.06 193247.41,-58309.19 193241.36,-58305.66"/>
<text text-anchor="middle" x="207718.81" y="-33443.78" font-family="Times,serif" font-size="14.00">お金のための結婚</text>
</g>
</g>
</svg>
