<?xml version="1.0" encoding="UTF-8" standalone="no"?>
<!DOCTYPE svg PUBLIC "-//W3C//DTD SVG 1.1//EN"
 "http://www.w3.org/Graphics/SVG/1.1/DTD/svg11.dtd">
<!-- Generated by graphviz version 2.42.3 (20191010.1750)
 -->
<!-- Title: %3 Pages: 1 -->
<svg width="43200pt" height="25189pt"
 viewBox="0.00 0.00 43200.00 25188.74" xmlns="http://www.w3.org/2000/svg" xmlns:xlink="http://www.w3.org/1999/xlink">
<g id="graph0" class="graph" transform="scale(7.46 7.46) rotate(0) translate(4 187824.61)">
<title>%3</title>
<polygon fill="white" stroke="transparent" points="-4,4 -4,-187824.61 322131.86,-187824.61 322131.86,4 -4,4"/>
<!-- セルゲイ・ニコラーエヴィチ -->
<g id="node1" class="node">
<title>セルゲイ・ニコラーエヴィチ</title>
<ellipse fill="none" stroke="black" cx="255552.31" cy="-159903" rx="12960" ry="4320"/>
<text text-anchor="middle" x="255552.31" y="-159902.3" font-family="Times,serif" font-size="14.00">セルゲイ・ニコラーエヴィチ</text>
</g>
<!-- 可愛らしいお嬢さん -->
<g id="node5" class="node">
<title>可愛らしいお嬢さん</title>
<ellipse fill="none" stroke="black" cx="202037" cy="-159903" rx="11880" ry="3960"/>
<text text-anchor="middle" x="202037" y="-159902.3" font-family="Times,serif" font-size="14.00">可愛らしいお嬢さん</text>
</g>
<!-- セルゲイ・ニコラーエヴィチ&#45;&gt;可愛らしいお嬢さん -->
<g id="edge1" class="edge">
<title>セルゲイ・ニコラーエヴィチ&#45;&gt;可愛らしいお嬢さん</title>
<path fill="none" stroke="black" d="M242592.15,-159903C233859.28,-159903 222427.13,-159903 213927.31,-159903"/>
<polygon fill="black" stroke="black" points="213927.19,-159899.5 213917.19,-159903 213927.19,-159906.5 213927.19,-159899.5"/>
<text text-anchor="middle" x="228210.73" y="-159914.62" font-family="Times,serif" font-size="14.00">18の時に恋した</text>
</g>
<!-- 乳母 -->
<g id="node6" class="node">
<title>乳母</title>
<ellipse fill="none" stroke="black" cx="310247.86" cy="-159903" rx="11880" ry="3960"/>
<text text-anchor="middle" x="310247.86" y="-159902.3" font-family="Times,serif" font-size="14.00">乳母</text>
</g>
<!-- セルゲイ・ニコラーエヴィチ&#45;&gt;乳母 -->
<g id="edge2" class="edge">
<title>セルゲイ・ニコラーエヴィチ&#45;&gt;乳母</title>
<path fill="none" stroke="black" d="M268512.5,-159903C277562.68,-159903 289551.92,-159903 298357.57,-159903"/>
<polygon fill="black" stroke="black" points="298357.65,-159906.5 298367.65,-159903 298357.65,-159899.5 298357.65,-159906.5"/>
<text text-anchor="middle" x="283372.04" y="-159912.8" font-family="Times,serif" font-size="14.00">６歳のの時に恋した</text>
</g>
<!-- アンナ -->
<g id="node2" class="node">
<title>アンナ</title>
<ellipse fill="none" stroke="black" cx="11880" cy="-29643.87" rx="11880" ry="3960"/>
<text text-anchor="middle" x="11880" y="-29643.17" font-family="Times,serif" font-size="14.00">アンナ</text>
</g>
<!-- ヴラジーミル・ペトローヴィチ -->
<g id="node3" class="node">
<title>ヴラジーミル・ペトローヴィチ</title>
<ellipse fill="none" stroke="black" cx="153865.6" cy="-67682.73" rx="18360" ry="6120"/>
<text text-anchor="middle" x="153865.6" y="-67682.03" font-family="Times,serif" font-size="14.00">ヴラジーミル・ペトローヴィチ</text>
</g>
<!-- 父 -->
<g id="node7" class="node">
<title>父</title>
<ellipse fill="none" stroke="black" cx="229946.77" cy="-46895.38" rx="16200" ry="5400"/>
<text text-anchor="middle" x="229946.77" y="-46894.68" font-family="Times,serif" font-size="14.00">父</text>
</g>
<!-- ヴラジーミル・ペトローヴィチ&#45;&gt;父 -->
<g id="edge8" class="edge">
<title>ヴラジーミル・ペトローヴィチ&#45;&gt;父</title>
<path fill="none" stroke="black" d="M168073.43,-63806.38C182259.67,-59932.28 203850.73,-54032.96 217415.61,-50324.57"/>
<polygon fill="black" stroke="black" points="217416.82,-50327.87 217425.54,-50321.85 217414.97,-50321.11 217416.82,-50327.87"/>
<text text-anchor="middle" x="192555.73" y="-57075.27" font-family="Times,serif" font-size="14.00">気どり澄ました、うぬぼれの強い、独りよがりの男だと思う</text>
</g>
<!-- ジナイーダ -->
<g id="node10" class="node">
<title>ジナイーダ</title>
<ellipse fill="none" stroke="black" cx="169680.06" cy="-129010.88" rx="16200" ry="5400"/>
<text text-anchor="middle" x="169680.06" y="-129010.18" font-family="Times,serif" font-size="14.00">ジナイーダ</text>
</g>
<!-- ヴラジーミル・ペトローヴィチ&#45;&gt;ジナイーダ -->
<g id="edge10" class="edge">
<title>ヴラジーミル・ペトローヴィチ&#45;&gt;ジナイーダ</title>
<path fill="none" stroke="black" d="M155437.94,-73780.27C158529.26,-85768.31 165352.44,-112228.46 168290.13,-123620.76"/>
<polygon fill="black" stroke="black" points="168286.79,-123621.85 168292.68,-123630.66 168293.57,-123620.11 168286.79,-123621.85"/>
<text text-anchor="middle" x="161704.16" y="-98710.31" font-family="Times,serif" font-size="14.00">打ち解けられて嬉しい、子供扱いされてもどかしい</text>
</g>
<!-- 主人 -->
<g id="node4" class="node">
<title>主人</title>
<ellipse fill="none" stroke="black" cx="73108.47" cy="-39227.37" rx="12960" ry="4320"/>
<text text-anchor="middle" x="73108.47" y="-39226.67" font-family="Times,serif" font-size="14.00">主人</text>
</g>
<!-- 主人&#45;&gt;アンナ -->
<g id="edge3" class="edge">
<title>主人&#45;&gt;アンナ</title>
<path fill="none" stroke="black" d="M61377.15,-37391.18C50193.79,-35640.76 33494.3,-33026.95 22643.64,-31328.6"/>
<polygon fill="black" stroke="black" points="22644.13,-31325.13 22633.7,-31327.04 22643.04,-31332.05 22644.13,-31325.13"/>
<text text-anchor="middle" x="41954.88" y="-34369.69" font-family="Times,serif" font-size="14.00">好きになって結婚</text>
</g>
<!-- 主人&#45;&gt;ヴラジーミル・ペトローヴィチ -->
<g id="edge4" class="edge">
<title>主人&#45;&gt;ヴラジーミル・ペトローヴィチ</title>
<path fill="none" stroke="black" d="M82015.19,-42365.72C96395.81,-47432.83 124776.7,-57433.05 141238.15,-63233.36"/>
<polygon fill="black" stroke="black" points="141237.36,-63236.79 141247.95,-63236.81 141239.68,-63230.19 141237.36,-63236.79"/>
<text text-anchor="middle" x="111563.67" y="-52809.34" font-family="Times,serif" font-size="14.00">初恋の話が聞きたい</text>
</g>
<!-- 父&#45;&gt;ヴラジーミル・ペトローヴィチ -->
<g id="edge5" class="edge">
<title>父&#45;&gt;ヴラジーミル・ペトローヴィチ</title>
<path fill="none" stroke="black" d="M217409.79,-50315.46C203842.4,-54020.31 182250.75,-59919.63 168066.64,-63797.04"/>
<polygon fill="black" stroke="black" points="168065.62,-63793.69 168056.9,-63799.71 168067.47,-63800.45 168065.62,-63793.69"/>
<text text-anchor="middle" x="192661.22" y="-57045.05" font-family="Times,serif" font-size="14.00">親子関係、冷淡な優しさ</text>
</g>
<!-- 母 -->
<g id="node8" class="node">
<title>母</title>
<ellipse fill="none" stroke="black" cx="208270.52" cy="-103585.34" rx="17280" ry="5760"/>
<text text-anchor="middle" x="208270.52" y="-103584.64" font-family="Times,serif" font-size="14.00">母</text>
</g>
<!-- 父&#45;&gt;母 -->
<g id="edge7" class="edge">
<title>父&#45;&gt;母</title>
<path fill="none" stroke="black" d="M227898.52,-52252.17C223808.35,-62949.2 214661.95,-86869.81 210459.03,-97861.72"/>
<polygon fill="black" stroke="black" points="210455.68,-97860.68 210455.38,-97871.28 210462.22,-97863.18 210455.68,-97860.68"/>
<text text-anchor="middle" x="219123.13" y="-75066.74" font-family="Times,serif" font-size="14.00">財産目当ての結婚</text>
</g>
<!-- 公爵 -->
<g id="node12" class="node">
<title>公爵</title>
<ellipse fill="none" stroke="black" cx="243710.9" cy="-4320" rx="12960" ry="4320"/>
<text text-anchor="middle" x="243710.9" y="-4319.3" font-family="Times,serif" font-size="14.00">公爵</text>
</g>
<!-- 父&#45;&gt;公爵 -->
<g id="edge15" class="edge">
<title>父&#45;&gt;公爵</title>
<path fill="none" stroke="black" d="M231682.48,-41526.43C234445.55,-32979.68 239789.8,-16448.81 242319.19,-8624.86"/>
<polygon fill="black" stroke="black" points="242322.57,-8625.79 242322.31,-8615.19 242315.91,-8623.63 242322.57,-8625.79"/>
<text text-anchor="middle" x="236888.84" y="-25085.45" font-family="Times,serif" font-size="14.00">教育はあるが薄っぺらい男だと思う</text>
</g>
<!-- 母&#45;&gt;ヴラジーミル・ペトローヴィチ -->
<g id="edge6" class="edge">
<title>母&#45;&gt;ヴラジーミル・ペトローヴィチ</title>
<path fill="none" stroke="black" d="M200479.24,-98443.76C190304.3,-91729.17 172566.01,-80023.41 162152.27,-73151.24"/>
<polygon fill="black" stroke="black" points="162153.97,-73148.16 162143.69,-73145.57 162150.11,-73154 162153.97,-73148.16"/>
<text text-anchor="middle" x="181231.76" y="-85807.3" font-family="Times,serif" font-size="14.00">公爵夫人へのお使いを頼む</text>
</g>
<!-- ザセーキナ -->
<g id="node9" class="node">
<title>ザセーキナ</title>
<ellipse fill="none" stroke="black" cx="220471.95" cy="-72623.26" rx="16200" ry="5400"/>
<text text-anchor="middle" x="220471.95" y="-72622.56" font-family="Times,serif" font-size="14.00">ザセーキナ</text>
</g>
<!-- 母&#45;&gt;ザセーキナ -->
<g id="edge14" class="edge">
<title>母&#45;&gt;ザセーキナ</title>
<path fill="none" stroke="black" d="M210526.78,-97874.57C212767.6,-92193.41 216176.31,-83543.44 218363.85,-77987.06"/>
<polygon fill="black" stroke="black" points="218367.15,-77988.24 218367.56,-77977.65 218360.64,-77985.67 218367.15,-77988.24"/>
<text text-anchor="middle" x="214375.32" y="-87940.62" font-family="Times,serif" font-size="14.00">俗っぽい女でうんざり</text>
</g>
<!-- 母&#45;&gt;ジナイーダ -->
<g id="edge17" class="edge">
<title>母&#45;&gt;ジナイーダ</title>
<path fill="none" stroke="black" d="M200469.51,-108725.08C193613.63,-113242.12 183711.27,-119766.34 177002.22,-124186.63"/>
<polygon fill="black" stroke="black" points="177000.05,-124183.88 176993.62,-124192.3 177003.9,-124189.72 177000.05,-124183.88"/>
<text text-anchor="middle" x="188665.87" y="-116465.66" font-family="Times,serif" font-size="14.00">高慢ちきな娘、と思う</text>
</g>
<!-- ザセーキナ&#45;&gt;父 -->
<g id="edge9" class="edge">
<title>ザセーキナ&#45;&gt;父</title>
<path fill="none" stroke="black" d="M222445.93,-67263.13C224065.82,-62864.47 226348.52,-56666.05 227969.35,-52264.85"/>
<polygon fill="black" stroke="black" points="227972.74,-52265.77 227972.91,-52255.18 227966.17,-52263.35 227972.74,-52265.77"/>
<text text-anchor="middle" x="225165.64" y="-59773.79" font-family="Times,serif" font-size="14.00">離れを借りる</text>
</g>
<!-- ザセーキナ&#45;&gt;母 -->
<g id="edge11" class="edge">
<title>ザセーキナ&#45;&gt;母</title>
<path fill="none" stroke="black" d="M218356.42,-77977.24C216166.11,-83530.01 212757.32,-92179.97 210519.14,-97864.62"/>
<polygon fill="black" stroke="black" points="210515.86,-97863.41 210515.45,-97873.99 210522.37,-97865.97 210515.86,-97863.41"/>
<text text-anchor="middle" x="214354.41" y="-87909.73" font-family="Times,serif" font-size="14.00">訴訟の手伝いをして欲しい</text>
</g>
<!-- ザセーキナ&#45;&gt;ジナイーダ -->
<g id="edge12" class="edge">
<title>ザセーキナ&#45;&gt;ジナイーダ</title>
<path fill="none" stroke="black" d="M215813.27,-77795.19C206148.83,-88524.36 184016.46,-113095.04 174345.89,-123831.02"/>
<polygon fill="black" stroke="black" points="174342.9,-123829.11 174338.8,-123838.88 174348.1,-123833.8 174342.9,-123829.11"/>
<text text-anchor="middle" x="195058.58" y="-100822.91" font-family="Times,serif" font-size="14.00">母ー娘</text>
</g>
<!-- ベロヴゾーロフ -->
<g id="node11" class="node">
<title>ベロヴゾーロフ</title>
<ellipse fill="none" stroke="black" cx="125565.94" cy="-183860.61" rx="11880" ry="3960"/>
<text text-anchor="middle" x="125565.94" y="-183859.91" font-family="Times,serif" font-size="14.00">ベロヴゾーロフ</text>
</g>
<!-- ベロヴゾーロフ&#45;&gt;ジナイーダ -->
<g id="edge13" class="edge">
<title>ベロヴゾーロフ&#45;&gt;ジナイーダ</title>
<path fill="none" stroke="black" d="M128642.49,-180035.34C136379.31,-170415.69 156655.88,-145204.62 165478.42,-134235.03"/>
<polygon fill="black" stroke="black" points="165481.35,-134236.98 165484.89,-134226.99 165475.89,-134232.59 165481.35,-134236.98"/>
<text text-anchor="middle" x="146977.23" y="-157144.98" font-family="Times,serif" font-size="14.00">猫の子を持ってきてくれる</text>
</g>
<!-- 公爵&#45;&gt;ザセーキナ -->
<g id="edge16" class="edge">
<title>公爵&#45;&gt;ザセーキナ</title>
<path fill="none" stroke="black" d="M242250.32,-8612.88C238189.92,-20547.1 226772.62,-54104.5 222300.83,-67247.88"/>
<polygon fill="black" stroke="black" points="222297.46,-67246.91 222297.55,-67257.5 222304.09,-67249.16 222297.46,-67246.91"/>
<text text-anchor="middle" x="232219.58" y="-37940.18" font-family="Times,serif" font-size="14.00">お金のための結婚</text>
</g>
</g>
</svg>
