<?xml version="1.0" encoding="UTF-8" standalone="no"?>
<!DOCTYPE svg PUBLIC "-//W3C//DTD SVG 1.1//EN"
 "http://www.w3.org/Graphics/SVG/1.1/DTD/svg11.dtd">
<!-- Generated by graphviz version 2.42.3 (20191010.1750)
 -->
<!-- Title: %3 Pages: 1 -->
<svg width="43200pt" height="12125pt"
 viewBox="0.00 0.00 43200.00 12124.58" xmlns="http://www.w3.org/2000/svg" xmlns:xlink="http://www.w3.org/1999/xlink">
<g id="graph0" class="graph" transform="scale(4.76 4.76) rotate(0) translate(4 57682)">
<title>%3</title>
<polygon fill="white" stroke="transparent" points="-4,4 -4,-57682 205531.86,-57682 205531.86,4 -4,4"/>
<!-- セルゲイ・ニコラーエヴィチ -->
<g id="node1" class="node">
<title>セルゲイ・ニコラーエヴィチ</title>
<ellipse fill="none" stroke="black" cx="138952.31" cy="-53358" rx="12960" ry="4320"/>
<text text-anchor="middle" x="138952.31" y="-53357.3" font-family="Times,serif" font-size="14.00">セルゲイ・ニコラーエヴィチ</text>
</g>
<!-- 可愛らしいお嬢さん -->
<g id="node5" class="node">
<title>可愛らしいお嬢さん</title>
<ellipse fill="none" stroke="black" cx="85437" cy="-53358" rx="11880" ry="3960"/>
<text text-anchor="middle" x="85437" y="-53357.3" font-family="Times,serif" font-size="14.00">可愛らしいお嬢さん</text>
</g>
<!-- セルゲイ・ニコラーエヴィチ&#45;&gt;可愛らしいお嬢さん -->
<g id="edge1" class="edge">
<title>セルゲイ・ニコラーエヴィチ&#45;&gt;可愛らしいお嬢さん</title>
<path fill="none" stroke="black" d="M125992.15,-53358C117259.28,-53358 105827.13,-53358 97327.31,-53358"/>
<polygon fill="black" stroke="black" points="97327.19,-53354.5 97317.19,-53358 97327.19,-53361.5 97327.19,-53354.5"/>
<text text-anchor="middle" x="111610.73" y="-53369.62" font-family="Times,serif" font-size="14.00">18の時に恋した</text>
</g>
<!-- 乳母 -->
<g id="node6" class="node">
<title>乳母</title>
<ellipse fill="none" stroke="black" cx="193647.86" cy="-53358" rx="11880" ry="3960"/>
<text text-anchor="middle" x="193647.86" y="-53357.3" font-family="Times,serif" font-size="14.00">乳母</text>
</g>
<!-- セルゲイ・ニコラーエヴィチ&#45;&gt;乳母 -->
<g id="edge2" class="edge">
<title>セルゲイ・ニコラーエヴィチ&#45;&gt;乳母</title>
<path fill="none" stroke="black" d="M151912.5,-53358C160962.68,-53358 172951.92,-53358 181757.57,-53358"/>
<polygon fill="black" stroke="black" points="181757.65,-53361.5 181767.65,-53358 181757.65,-53354.5 181757.65,-53361.5"/>
<text text-anchor="middle" x="166772.04" y="-53367.8" font-family="Times,serif" font-size="14.00">６歳のの時に恋した</text>
</g>
<!-- アンナ -->
<g id="node2" class="node">
<title>アンナ</title>
<ellipse fill="none" stroke="black" cx="11880" cy="-24186.9" rx="11880" ry="3960"/>
<text text-anchor="middle" x="11880" y="-24186.2" font-family="Times,serif" font-size="14.00">アンナ</text>
</g>
<!-- ヴラジーミル・ペトローヴィチ -->
<g id="node3" class="node">
<title>ヴラジーミル・ペトローヴィチ</title>
<ellipse fill="none" stroke="black" cx="127907.95" cy="-24129.47" rx="15120" ry="5040"/>
<text text-anchor="middle" x="127907.95" y="-24128.77" font-family="Times,serif" font-size="14.00">ヴラジーミル・ペトローヴィチ</text>
</g>
<!-- 父 -->
<g id="node7" class="node">
<title>父</title>
<ellipse fill="none" stroke="black" cx="174570.21" cy="-4680" rx="14040" ry="4680"/>
<text text-anchor="middle" x="174570.21" y="-4679.3" font-family="Times,serif" font-size="14.00">父</text>
</g>
<!-- ヴラジーミル・ペトローヴィチ&#45;&gt;父 -->
<g id="edge8" class="edge">
<title>ヴラジーミル・ペトローヴィチ&#45;&gt;父</title>
<path fill="none" stroke="black" d="M137360.35,-20195.59C145678.17,-16730.39 157693.32,-11722.26 165800.44,-8341.22"/>
<polygon fill="black" stroke="black" points="165801.84,-8344.43 165809.72,-8337.35 165799.14,-8337.97 165801.84,-8344.43"/>
<text text-anchor="middle" x="151391.61" y="-14278.21" font-family="Times,serif" font-size="14.00">気どり澄ました、うぬぼれの強い、独りよがりの男だと思う</text>
</g>
<!-- 主人 -->
<g id="node4" class="node">
<title>主人</title>
<ellipse fill="none" stroke="black" cx="65939.24" cy="-24160.93" rx="12960" ry="4320"/>
<text text-anchor="middle" x="65939.24" y="-24160.23" font-family="Times,serif" font-size="14.00">主人</text>
</g>
<!-- 主人&#45;&gt;アンナ -->
<g id="edge3" class="edge">
<title>主人&#45;&gt;アンナ</title>
<path fill="none" stroke="black" d="M52979.16,-24167.16C44099.7,-24171.42 32411.53,-24177.04 23770.37,-24181.19"/>
<polygon fill="black" stroke="black" points="23770.08,-24177.69 23760.09,-24181.2 23770.09,-24184.69 23770.08,-24177.69"/>
<text text-anchor="middle" x="38319.26" y="-24183.97" font-family="Times,serif" font-size="14.00">好きになって結婚</text>
</g>
<!-- 主人&#45;&gt;ヴラジーミル・ペトローヴィチ -->
<g id="edge4" class="edge">
<title>主人&#45;&gt;ヴラジーミル・ペトローヴィチ</title>
<path fill="none" stroke="black" d="M78899.25,-24154.35C88776.65,-24149.34 102400.61,-24142.42 112777.38,-24137.15"/>
<polygon fill="black" stroke="black" points="112777.83,-24140.65 112787.83,-24137.15 112777.83,-24133.65 112777.83,-24140.65"/>
<text text-anchor="middle" x="95775.31" y="-24155.55" font-family="Times,serif" font-size="14.00">初恋の話が聞きたい</text>
</g>
<!-- 父&#45;&gt;ヴラジーミル・ペトローヴィチ -->
<g id="edge5" class="edge">
<title>父&#45;&gt;ヴラジーミル・ペトローヴィチ</title>
<path fill="none" stroke="black" d="M165792.6,-8332.77C157682.89,-11711.12 145667.51,-16719.25 137352.07,-20187.02"/>
<polygon fill="black" stroke="black" points="137350.43,-20183.91 137342.55,-20190.99 137353.13,-20190.37 137350.43,-20183.91"/>
<text text-anchor="middle" x="151495.33" y="-14248.69" font-family="Times,serif" font-size="14.00">親子関係、冷淡な優しさ</text>
</g>
<!-- 母 -->
<g id="node8" class="node">
<title>母</title>
<ellipse fill="none" stroke="black" cx="174433.27" cy="-43732.82" rx="12960" ry="4320"/>
<text text-anchor="middle" x="174433.27" y="-43732.12" font-family="Times,serif" font-size="14.00">母</text>
</g>
<!-- 父&#45;&gt;母 -->
<g id="edge7" class="edge">
<title>父&#45;&gt;母</title>
<path fill="none" stroke="black" d="M174553.8,-9360.06C174527.04,-16991.1 174474.4,-32003.67 174448.46,-39402.25"/>
<polygon fill="black" stroke="black" points="174444.96,-39402.4 174448.42,-39412.41 174451.96,-39402.42 174444.96,-39402.4"/>
<text text-anchor="middle" x="174445.48" y="-24390.96" font-family="Times,serif" font-size="14.00">財産目当ての結婚</text>
</g>
<!-- 母&#45;&gt;ヴラジーミル・ペトローヴィチ -->
<g id="edge6" class="edge">
<title>母&#45;&gt;ヴラジーミル・ペトローヴィチ</title>
<path fill="none" stroke="black" d="M166392.24,-40344.74C158303.07,-36936.39 145836.67,-31683.7 137298.38,-28086.11"/>
<polygon fill="black" stroke="black" points="137299.57,-28082.81 137288.99,-28082.15 137296.85,-28089.26 137299.57,-28082.81"/>
<text text-anchor="middle" x="151782.31" y="-34225.22" font-family="Times,serif" font-size="14.00">親子関係、構わない</text>
</g>
</g>
</svg>
