<?xml version="1.0" encoding="UTF-8" standalone="no"?>
<!DOCTYPE svg PUBLIC "-//W3C//DTD SVG 1.1//EN"
 "http://www.w3.org/Graphics/SVG/1.1/DTD/svg11.dtd">
<!-- Generated by graphviz version 2.42.3 (20191010.1750)
 -->
<!-- Title: %3 Pages: 1 -->
<svg width="43200pt" height="14630pt"
 viewBox="0.00 0.00 43200.00 14629.80" xmlns="http://www.w3.org/2000/svg" xmlns:xlink="http://www.w3.org/1999/xlink">
<g id="graph0" class="graph" transform="scale(5.8 5.8) rotate(0) translate(4 84820)">
<title>%3</title>
<polygon fill="white" stroke="transparent" points="-4,4 -4,-84820 250470.86,-84820 250470.86,4 -4,4"/>
<!-- セルゲイ・ニコラーエヴィチ -->
<g id="node1" class="node">
<title>セルゲイ・ニコラーエヴィチ</title>
<ellipse fill="none" stroke="black" cx="183891.31" cy="-80496" rx="12960" ry="4320"/>
<text text-anchor="middle" x="183891.31" y="-80495.3" font-family="Times,serif" font-size="14.00">セルゲイ・ニコラーエヴィチ</text>
</g>
<!-- 可愛らしいお嬢さん -->
<g id="node5" class="node">
<title>可愛らしいお嬢さん</title>
<ellipse fill="none" stroke="black" cx="130376" cy="-80496" rx="11880" ry="3960"/>
<text text-anchor="middle" x="130376" y="-80495.3" font-family="Times,serif" font-size="14.00">可愛らしいお嬢さん</text>
</g>
<!-- セルゲイ・ニコラーエヴィチ&#45;&gt;可愛らしいお嬢さん -->
<g id="edge1" class="edge">
<title>セルゲイ・ニコラーエヴィチ&#45;&gt;可愛らしいお嬢さん</title>
<path fill="none" stroke="black" d="M170931.15,-80496C162198.28,-80496 150766.13,-80496 142266.31,-80496"/>
<polygon fill="black" stroke="black" points="142266.19,-80492.5 142256.19,-80496 142266.19,-80499.5 142266.19,-80492.5"/>
<text text-anchor="middle" x="156549.73" y="-80507.62" font-family="Times,serif" font-size="14.00">18の時に恋した</text>
</g>
<!-- 乳母 -->
<g id="node6" class="node">
<title>乳母</title>
<ellipse fill="none" stroke="black" cx="238586.86" cy="-80496" rx="11880" ry="3960"/>
<text text-anchor="middle" x="238586.86" y="-80495.3" font-family="Times,serif" font-size="14.00">乳母</text>
</g>
<!-- セルゲイ・ニコラーエヴィチ&#45;&gt;乳母 -->
<g id="edge2" class="edge">
<title>セルゲイ・ニコラーエヴィチ&#45;&gt;乳母</title>
<path fill="none" stroke="black" d="M196851.5,-80496C205901.68,-80496 217890.92,-80496 226696.57,-80496"/>
<polygon fill="black" stroke="black" points="226696.65,-80499.5 226706.65,-80496 226696.65,-80492.5 226696.65,-80499.5"/>
<text text-anchor="middle" x="211711.04" y="-80505.8" font-family="Times,serif" font-size="14.00">６歳のの時に恋した</text>
</g>
<!-- アンナ -->
<g id="node2" class="node">
<title>アンナ</title>
<ellipse fill="none" stroke="black" cx="11880" cy="-52685.39" rx="11880" ry="3960"/>
<text text-anchor="middle" x="11880" y="-52684.69" font-family="Times,serif" font-size="14.00">アンナ</text>
</g>
<!-- ヴラジーミル・ペトローヴィチ -->
<g id="node3" class="node">
<title>ヴラジーミル・ペトローヴィチ</title>
<ellipse fill="none" stroke="black" cx="117577.73" cy="-36736.99" rx="15120" ry="5040"/>
<text text-anchor="middle" x="117577.73" y="-36736.29" font-family="Times,serif" font-size="14.00">ヴラジーミル・ペトローヴィチ</text>
</g>
<!-- 父 -->
<g id="node7" class="node">
<title>父</title>
<ellipse fill="none" stroke="black" cx="170714.47" cy="-45876.39" rx="15120" ry="5040"/>
<text text-anchor="middle" x="170714.47" y="-45875.69" font-family="Times,serif" font-size="14.00">父</text>
</g>
<!-- ヴラジーミル・ペトローヴィチ&#45;&gt;父 -->
<g id="edge8" class="edge">
<title>ヴラジーミル・ペトローヴィチ&#45;&gt;父</title>
<path fill="none" stroke="black" d="M131007.08,-39052.86C139042.44,-40435.99 149220.68,-42186.63 157260.42,-43568.37"/>
<polygon fill="black" stroke="black" points="157259.91,-43571.83 157270.36,-43570.08 157261.1,-43564.94 157259.91,-43571.83"/>
<text text-anchor="middle" x="143944.96" y="-41320.41" font-family="Times,serif" font-size="14.00">気どり澄ました、うぬぼれの強い、独りよがりの男だと思う</text>
</g>
<!-- 主人 -->
<g id="node4" class="node">
<title>主人</title>
<ellipse fill="none" stroke="black" cx="60935.21" cy="-45411.51" rx="12960" ry="4320"/>
<text text-anchor="middle" x="60935.21" y="-45410.81" font-family="Times,serif" font-size="14.00">主人</text>
</g>
<!-- 主人&#45;&gt;アンナ -->
<g id="edge3" class="edge">
<title>主人&#45;&gt;アンナ</title>
<path fill="none" stroke="black" d="M49093.54,-47167.38C41071.79,-48356.85 30552.16,-49916.69 22744.74,-51074.38"/>
<polygon fill="black" stroke="black" points="22744.1,-51070.93 22734.73,-51075.86 22745.13,-51077.85 22744.1,-51070.93"/>
<text text-anchor="middle" x="35863.63" y="-49130.68" font-family="Times,serif" font-size="14.00">好きになって結婚</text>
</g>
<!-- 主人&#45;&gt;ヴラジーミル・ペトローヴィチ -->
<g id="edge4" class="edge">
<title>主人&#45;&gt;ヴラジーミル・ペトローヴィチ</title>
<path fill="none" stroke="black" d="M72711.88,-43607.97C81771.33,-42220.56 94308.99,-40300.48 103828.12,-38842.68"/>
<polygon fill="black" stroke="black" points="103828.79,-38846.12 103838.14,-38841.14 103827.73,-38839.2 103828.79,-38846.12"/>
<text text-anchor="middle" x="88207" y="-41235.12" font-family="Times,serif" font-size="14.00">初恋の話が聞きたい</text>
</g>
<!-- 父&#45;&gt;ヴラジーミル・ペトローヴィチ -->
<g id="edge5" class="edge">
<title>父&#45;&gt;ヴラジーミル・ペトローヴィチ</title>
<path fill="none" stroke="black" d="M157285.11,-43560.53C149249.75,-42177.39 139071.51,-40426.76 131031.77,-39045.01"/>
<polygon fill="black" stroke="black" points="131032.28,-39041.55 131021.83,-39043.31 131031.1,-39048.45 131032.28,-39041.55"/>
<text text-anchor="middle" x="144081.44" y="-41291.57" font-family="Times,serif" font-size="14.00">親子関係、冷淡な優しさ</text>
</g>
<!-- 母 -->
<g id="node8" class="node">
<title>母</title>
<ellipse fill="none" stroke="black" cx="152686.77" cy="-4320" rx="12960" ry="4320"/>
<text text-anchor="middle" x="152686.77" y="-4319.3" font-family="Times,serif" font-size="14.00">母</text>
</g>
<!-- 父&#45;&gt;母 -->
<g id="edge7" class="edge">
<title>父&#45;&gt;母</title>
<path fill="none" stroke="black" d="M168550.55,-40888.24C164977.84,-32652.65 157906.98,-16353.32 154545.62,-8604.91"/>
<polygon fill="black" stroke="black" points="154548.81,-8603.47 154541.62,-8595.69 154542.39,-8606.25 154548.81,-8603.47"/>
<text text-anchor="middle" x="161492.43" y="-24756.38" font-family="Times,serif" font-size="14.00">財産目当ての結婚</text>
</g>
<!-- 母&#45;&gt;ヴラジーミル・ペトローヴィチ -->
<g id="edge6" class="edge">
<title>母&#45;&gt;ヴラジーミル・ペトローヴィチ</title>
<path fill="none" stroke="black" d="M148285.99,-8383.34C141781.06,-14389.49 129626.19,-25612.37 122719.81,-31989.19"/>
<polygon fill="black" stroke="black" points="122717.19,-31986.84 122712.22,-31996.2 122721.94,-31991.98 122717.19,-31986.84"/>
<text text-anchor="middle" x="135439.9" y="-20196.07" font-family="Times,serif" font-size="14.00">親子関係、構わない</text>
</g>
<!-- ザセーキナ -->
<g id="node9" class="node">
<title>ザセーキナ</title>
<ellipse fill="none" stroke="black" cx="218168.4" cy="-66219.7" rx="11880" ry="3960"/>
<text text-anchor="middle" x="218168.4" y="-66219" font-family="Times,serif" font-size="14.00">ザセーキナ</text>
</g>
<!-- ザセーキナ&#45;&gt;父 -->
<g id="edge9" class="edge">
<title>ザセーキナ&#45;&gt;父</title>
<path fill="none" stroke="black" d="M210875.95,-63093.45C202588.45,-59540.64 189043.05,-53733.78 180005.4,-49859.37"/>
<polygon fill="black" stroke="black" points="180006.45,-49856.02 179995.88,-49855.29 180003.69,-49862.45 180006.45,-49856.02"/>
<text text-anchor="middle" x="195398.67" y="-56486.21" font-family="Times,serif" font-size="14.00">離れを借りる</text>
</g>
<!-- ジナイーダ -->
<g id="node10" class="node">
<title>ジナイーダ</title>
<ellipse fill="none" stroke="black" cx="112368" cy="-20528" rx="10800" ry="3600"/>
<text text-anchor="middle" x="112368" y="-20527.3" font-family="Times,serif" font-size="14.00">ジナイーダ</text>
</g>
</g>
</svg>
