<?xml version="1.0" encoding="UTF-8" standalone="no"?>
<!DOCTYPE svg PUBLIC "-//W3C//DTD SVG 1.1//EN"
 "http://www.w3.org/Graphics/SVG/1.1/DTD/svg11.dtd">
<!-- Generated by graphviz version 2.42.3 (20191010.1750)
 -->
<!-- Title: %3 Pages: 1 -->
<svg width="43200pt" height="18385pt"
 viewBox="0.00 0.00 43200.00 18385.17" xmlns="http://www.w3.org/2000/svg" xmlns:xlink="http://www.w3.org/1999/xlink">
<g id="graph0" class="graph" transform="scale(6.54 6.54) rotate(0) translate(4 120210.26)">
<title>%3</title>
<polygon fill="white" stroke="transparent" points="-4,4 -4,-120210.26 282465.86,-120210.26 282465.86,4 -4,4"/>
<!-- セルゲイ・ニコラーエヴィチ -->
<g id="node1" class="node">
<title>セルゲイ・ニコラーエヴィチ</title>
<ellipse fill="none" stroke="black" cx="215886.31" cy="-72725" rx="12960" ry="4320"/>
<text text-anchor="middle" x="215886.31" y="-72724.3" font-family="Times,serif" font-size="14.00">セルゲイ・ニコラーエヴィチ</text>
</g>
<!-- 可愛らしいお嬢さん -->
<g id="node5" class="node">
<title>可愛らしいお嬢さん</title>
<ellipse fill="none" stroke="black" cx="162371" cy="-72725" rx="11880" ry="3960"/>
<text text-anchor="middle" x="162371" y="-72724.3" font-family="Times,serif" font-size="14.00">可愛らしいお嬢さん</text>
</g>
<!-- セルゲイ・ニコラーエヴィチ&#45;&gt;可愛らしいお嬢さん -->
<g id="edge1" class="edge">
<title>セルゲイ・ニコラーエヴィチ&#45;&gt;可愛らしいお嬢さん</title>
<path fill="none" stroke="black" d="M202926.15,-72725C194193.28,-72725 182761.13,-72725 174261.31,-72725"/>
<polygon fill="black" stroke="black" points="174261.19,-72721.5 174251.19,-72725 174261.19,-72728.5 174261.19,-72721.5"/>
<text text-anchor="middle" x="188544.73" y="-72736.62" font-family="Times,serif" font-size="14.00">18の時に恋した</text>
</g>
<!-- 乳母 -->
<g id="node6" class="node">
<title>乳母</title>
<ellipse fill="none" stroke="black" cx="270581.86" cy="-72725" rx="11880" ry="3960"/>
<text text-anchor="middle" x="270581.86" y="-72724.3" font-family="Times,serif" font-size="14.00">乳母</text>
</g>
<!-- セルゲイ・ニコラーエヴィチ&#45;&gt;乳母 -->
<g id="edge2" class="edge">
<title>セルゲイ・ニコラーエヴィチ&#45;&gt;乳母</title>
<path fill="none" stroke="black" d="M228846.5,-72725C237896.68,-72725 249885.92,-72725 258691.57,-72725"/>
<polygon fill="black" stroke="black" points="258691.65,-72728.5 258701.65,-72725 258691.65,-72721.5 258691.65,-72728.5"/>
<text text-anchor="middle" x="243706.04" y="-72734.8" font-family="Times,serif" font-size="14.00">６歳のの時に恋した</text>
</g>
<!-- アンナ -->
<g id="node2" class="node">
<title>アンナ</title>
<ellipse fill="none" stroke="black" cx="11880" cy="-3960" rx="11880" ry="3960"/>
<text text-anchor="middle" x="11880" y="-3959.3" font-family="Times,serif" font-size="14.00">アンナ</text>
</g>
<!-- ヴラジーミル・ペトローヴィチ -->
<g id="node3" class="node">
<title>ヴラジーミル・ペトローヴィチ</title>
<ellipse fill="none" stroke="black" cx="117865.35" cy="-56792.47" rx="16200" ry="5400"/>
<text text-anchor="middle" x="117865.35" y="-56791.77" font-family="Times,serif" font-size="14.00">ヴラジーミル・ペトローヴィチ</text>
</g>
<!-- 父 -->
<g id="node7" class="node">
<title>父</title>
<ellipse fill="none" stroke="black" cx="178375.68" cy="-36032.58" rx="15120" ry="5040"/>
<text text-anchor="middle" x="178375.68" y="-36031.88" font-family="Times,serif" font-size="14.00">父</text>
</g>
<!-- ヴラジーミル・ペトローヴィチ&#45;&gt;父 -->
<g id="edge8" class="edge">
<title>ヴラジーミル・ペトローヴィチ&#45;&gt;父</title>
<path fill="none" stroke="black" d="M129162.97,-52922.19C140248.62,-49120.87 157021.24,-43366.47 167837.7,-39653.52"/>
<polygon fill="black" stroke="black" points="167839.28,-39656.67 167847.61,-39650.12 167837.01,-39650.05 167839.28,-39656.67"/>
<text text-anchor="middle" x="148311.55" y="-46297.65" font-family="Times,serif" font-size="14.00">気どり澄ました、うぬぼれの強い、独りよがりの男だと思う</text>
</g>
<!-- ジナイーダ -->
<g id="node10" class="node">
<title>ジナイーダ</title>
<ellipse fill="none" stroke="black" cx="113714.65" cy="-116246.26" rx="11880" ry="3960"/>
<text text-anchor="middle" x="113714.65" y="-116245.56" font-family="Times,serif" font-size="14.00">ジナイーダ</text>
</g>
<!-- ヴラジーミル・ペトローヴィチ&#45;&gt;ジナイーダ -->
<g id="edge10" class="edge">
<title>ヴラジーミル・ペトローヴィチ&#45;&gt;ジナイーダ</title>
<path fill="none" stroke="black" d="M117488.45,-62191.16C116663.84,-74002.68 114715.6,-101908.82 113991.77,-112276.82"/>
<polygon fill="black" stroke="black" points="113988.25,-112277.04 113991.04,-112287.26 113995.23,-112277.52 113988.25,-112277.04"/>
<text text-anchor="middle" x="115677.11" y="-87243.79" font-family="Times,serif" font-size="14.00">知り合いになりたい</text>
</g>
<!-- 主人 -->
<g id="node4" class="node">
<title>主人</title>
<ellipse fill="none" stroke="black" cx="56172.57" cy="-36106.14" rx="12960" ry="4320"/>
<text text-anchor="middle" x="56172.57" y="-36105.44" font-family="Times,serif" font-size="14.00">主人</text>
</g>
<!-- 主人&#45;&gt;アンナ -->
<g id="edge3" class="edge">
<title>主人&#45;&gt;アンナ</title>
<path fill="none" stroke="black" d="M50763.25,-32180.22C42096.5,-25890.17 25224.6,-13645.09 16846.84,-7564.77"/>
<polygon fill="black" stroke="black" points="16848.55,-7561.69 16838.4,-7558.65 16844.44,-7567.36 16848.55,-7561.69"/>
<text text-anchor="middle" x="33749.53" y="-19882.3" font-family="Times,serif" font-size="14.00">好きになって結婚</text>
</g>
<!-- 主人&#45;&gt;ヴラジーミル・ペトローヴィチ -->
<g id="edge4" class="edge">
<title>主人&#45;&gt;ヴラジーミル・ペトローヴィチ</title>
<path fill="none" stroke="black" d="M65309.53,-39169.87C76246.88,-42837.29 94569.66,-48981.15 106434.56,-52959.59"/>
<polygon fill="black" stroke="black" points="106433.48,-52962.92 106444.07,-52962.78 106435.7,-52956.28 106433.48,-52962.92"/>
<text text-anchor="middle" x="85809.05" y="-46074.53" font-family="Times,serif" font-size="14.00">初恋の話が聞きたい</text>
</g>
<!-- 父&#45;&gt;ヴラジーミル・ペトローヴィチ -->
<g id="edge5" class="edge">
<title>父&#45;&gt;ヴラジーミル・ペトローヴィチ</title>
<path fill="none" stroke="black" d="M167830.91,-39644.71C157011.85,-43354.47 140238.95,-49108.88 129155.69,-52913.28"/>
<polygon fill="black" stroke="black" points="129154.37,-52910.03 129146.04,-52916.59 129156.64,-52916.65 129154.37,-52910.03"/>
<text text-anchor="middle" x="148416.3" y="-46267.79" font-family="Times,serif" font-size="14.00">親子関係、冷淡な優しさ</text>
</g>
<!-- 母 -->
<g id="node8" class="node">
<title>母</title>
<ellipse fill="none" stroke="black" cx="139817.9" cy="-8366.14" rx="12960" ry="4320"/>
<text text-anchor="middle" x="139817.9" y="-8365.44" font-family="Times,serif" font-size="14.00">母</text>
</g>
<!-- 父&#45;&gt;母 -->
<g id="edge7" class="edge">
<title>父&#45;&gt;母</title>
<path fill="none" stroke="black" d="M172005.27,-31461.6C164549.93,-26112.16 152330.22,-17344.13 145286.78,-12290.24"/>
<polygon fill="black" stroke="black" points="145288.57,-12287.21 145278.4,-12284.22 145284.48,-12292.9 145288.57,-12287.21"/>
<text text-anchor="middle" x="158590.38" y="-21885.72" font-family="Times,serif" font-size="14.00">財産目当ての結婚</text>
</g>
<!-- 母&#45;&gt;ヴラジーミル・ペトローヴィチ -->
<g id="edge6" class="edge">
<title>母&#45;&gt;ヴラジーミル・ペトローヴィチ</title>
<path fill="none" stroke="black" d="M137881.49,-12637.77C133874.92,-21476.08 124683.34,-41752.3 120290.08,-51443.63"/>
<polygon fill="black" stroke="black" points="120286.8,-51442.39 120285.86,-51452.94 120293.18,-51445.28 120286.8,-51442.39"/>
<text text-anchor="middle" x="129022.79" y="-32050.5" font-family="Times,serif" font-size="14.00">親子関係、構わない</text>
</g>
<!-- ザセーキナ -->
<g id="node9" class="node">
<title>ザセーキナ</title>
<ellipse fill="none" stroke="black" cx="231081.29" cy="-14962.77" rx="11880" ry="3960"/>
<text text-anchor="middle" x="231081.29" y="-14962.07" font-family="Times,serif" font-size="14.00">ザセーキナ</text>
</g>
<!-- ザセーキナ&#45;&gt;父 -->
<g id="edge9" class="edge">
<title>ザセーキナ&#45;&gt;父</title>
<path fill="none" stroke="black" d="M223472.86,-18004.35C214130.95,-21738.91 198273.9,-28077.99 188068.16,-32157.87"/>
<polygon fill="black" stroke="black" points="188066.8,-32154.65 188058.82,-32161.61 188069.4,-32161.15 188066.8,-32154.65"/>
<text text-anchor="middle" x="205728.51" y="-25090.91" font-family="Times,serif" font-size="14.00">離れを借りる</text>
</g>
</g>
</svg>
