<?xml version="1.0" encoding="UTF-8" standalone="no"?>
<!DOCTYPE svg PUBLIC "-//W3C//DTD SVG 1.1//EN"
 "http://www.w3.org/Graphics/SVG/1.1/DTD/svg11.dtd">
<!-- Generated by graphviz version 2.42.3 (20191010.1750)
 -->
<!-- Title: %3 Pages: 1 -->
<svg width="43200pt" height="18563pt"
 viewBox="0.00 0.00 43200.00 18563.40" xmlns="http://www.w3.org/2000/svg" xmlns:xlink="http://www.w3.org/1999/xlink">
<g id="graph0" class="graph" transform="scale(6.33 6.33) rotate(0) translate(4 117485.53)">
<title>%3</title>
<polygon fill="white" stroke="transparent" points="-4,4 -4,-117485.53 273412.86,-117485.53 273412.86,4 -4,4"/>
<!-- セルゲイ・ニコラーエヴィチ -->
<g id="node1" class="node">
<title>セルゲイ・ニコラーエヴィチ</title>
<ellipse fill="none" stroke="black" cx="206833.31" cy="-68610" rx="12960" ry="4320"/>
<text text-anchor="middle" x="206833.31" y="-68609.3" font-family="Times,serif" font-size="14.00">セルゲイ・ニコラーエヴィチ</text>
</g>
<!-- 可愛らしいお嬢さん -->
<g id="node5" class="node">
<title>可愛らしいお嬢さん</title>
<ellipse fill="none" stroke="black" cx="153318" cy="-68610" rx="11880" ry="3960"/>
<text text-anchor="middle" x="153318" y="-68609.3" font-family="Times,serif" font-size="14.00">可愛らしいお嬢さん</text>
</g>
<!-- セルゲイ・ニコラーエヴィチ&#45;&gt;可愛らしいお嬢さん -->
<g id="edge1" class="edge">
<title>セルゲイ・ニコラーエヴィチ&#45;&gt;可愛らしいお嬢さん</title>
<path fill="none" stroke="black" d="M193873.15,-68610C185140.28,-68610 173708.13,-68610 165208.31,-68610"/>
<polygon fill="black" stroke="black" points="165208.19,-68606.5 165198.19,-68610 165208.19,-68613.5 165208.19,-68606.5"/>
<text text-anchor="middle" x="179491.73" y="-68621.62" font-family="Times,serif" font-size="14.00">18の時に恋した</text>
</g>
<!-- 乳母 -->
<g id="node6" class="node">
<title>乳母</title>
<ellipse fill="none" stroke="black" cx="261528.86" cy="-68610" rx="11880" ry="3960"/>
<text text-anchor="middle" x="261528.86" y="-68609.3" font-family="Times,serif" font-size="14.00">乳母</text>
</g>
<!-- セルゲイ・ニコラーエヴィチ&#45;&gt;乳母 -->
<g id="edge2" class="edge">
<title>セルゲイ・ニコラーエヴィチ&#45;&gt;乳母</title>
<path fill="none" stroke="black" d="M219793.5,-68610C228843.68,-68610 240832.92,-68610 249638.57,-68610"/>
<polygon fill="black" stroke="black" points="249638.65,-68613.5 249648.65,-68610 249638.65,-68606.5 249638.65,-68613.5"/>
<text text-anchor="middle" x="234653.04" y="-68619.8" font-family="Times,serif" font-size="14.00">６歳のの時に恋した</text>
</g>
<!-- アンナ -->
<g id="node2" class="node">
<title>アンナ</title>
<ellipse fill="none" stroke="black" cx="11880" cy="-3960" rx="11880" ry="3960"/>
<text text-anchor="middle" x="11880" y="-3959.3" font-family="Times,serif" font-size="14.00">アンナ</text>
</g>
<!-- ヴラジーミル・ペトローヴィチ -->
<g id="node3" class="node">
<title>ヴラジーミル・ペトローヴィチ</title>
<ellipse fill="none" stroke="black" cx="118924.91" cy="-54738.32" rx="16200" ry="5400"/>
<text text-anchor="middle" x="118924.91" y="-54737.62" font-family="Times,serif" font-size="14.00">ヴラジーミル・ペトローヴィチ</text>
</g>
<!-- 父 -->
<g id="node7" class="node">
<title>父</title>
<ellipse fill="none" stroke="black" cx="160490.34" cy="-15257.74" rx="15120" ry="5040"/>
<text text-anchor="middle" x="160490.34" y="-15257.04" font-family="Times,serif" font-size="14.00">父</text>
</g>
<!-- ヴラジーミル・ペトローヴィチ&#45;&gt;父 -->
<g id="edge8" class="edge">
<title>ヴラジーミル・ペトローヴィチ&#45;&gt;父</title>
<path fill="none" stroke="black" d="M124295.58,-49643.52C132390.28,-41958.65 147605.68,-27506.37 155481.81,-20021.37"/>
<polygon fill="black" stroke="black" points="155484.54,-20023.61 155489.38,-20014.18 155479.72,-20018.53 155484.54,-20023.61"/>
<text text-anchor="middle" x="139699.91" y="-34842.25" font-family="Times,serif" font-size="14.00">気どり澄ました、うぬぼれの強い、独りよがりの男だと思う</text>
</g>
<!-- ジナイーダ -->
<g id="node10" class="node">
<title>ジナイーダ</title>
<ellipse fill="none" stroke="black" cx="108588.51" cy="-113521.53" rx="11880" ry="3960"/>
<text text-anchor="middle" x="108588.51" y="-113520.83" font-family="Times,serif" font-size="14.00">ジナイーダ</text>
</g>
<!-- ヴラジーミル・ペトローヴィチ&#45;&gt;ジナイーダ -->
<g id="edge10" class="edge">
<title>ヴラジーミル・ペトローヴィチ&#45;&gt;ジナイーダ</title>
<path fill="none" stroke="black" d="M117976.99,-60129.15C115920.74,-71823.08 111090.56,-99292.34 109285.4,-109558.31"/>
<polygon fill="black" stroke="black" points="109281.95,-109557.72 109283.67,-109568.17 109288.85,-109558.93 109281.95,-109557.72"/>
<text text-anchor="middle" x="113568.2" y="-84853.53" font-family="Times,serif" font-size="14.00">知り合いになりたい</text>
</g>
<!-- 主人 -->
<g id="node4" class="node">
<title>主人</title>
<ellipse fill="none" stroke="black" cx="56052.82" cy="-31850.31" rx="12960" ry="4320"/>
<text text-anchor="middle" x="56052.82" y="-31849.61" font-family="Times,serif" font-size="14.00">主人</text>
</g>
<!-- 主人&#45;&gt;アンナ -->
<g id="edge3" class="edge">
<title>主人&#45;&gt;アンナ</title>
<path fill="none" stroke="black" d="M50001.95,-28029.85C41399.58,-22598.39 25757.18,-12721.92 17435.17,-7467.48"/>
<polygon fill="black" stroke="black" points="17436.73,-7464.33 17426.41,-7461.95 17433,-7470.25 17436.73,-7464.33"/>
<text text-anchor="middle" x="33663.05" y="-17758.47" font-family="Times,serif" font-size="14.00">好きになって結婚</text>
</g>
<!-- 主人&#45;&gt;ヴラジーミル・ペトローヴィチ -->
<g id="edge4" class="edge">
<title>主人&#45;&gt;ヴラジーミル・ペトローヴィチ</title>
<path fill="none" stroke="black" d="M64804.99,-35036.46C76089.05,-39144.32 95714.36,-46288.73 107974.97,-50752.09"/>
<polygon fill="black" stroke="black" points="107973.92,-50755.43 107984.51,-50755.57 107976.31,-50748.86 107973.92,-50755.43"/>
<text text-anchor="middle" x="86326.98" y="-42904.08" font-family="Times,serif" font-size="14.00">初恋の話が聞きたい</text>
</g>
<!-- 父&#45;&gt;ヴラジーミル・ペトローヴィチ -->
<g id="edge5" class="edge">
<title>父&#45;&gt;ヴラジーミル・ペトローヴィチ</title>
<path fill="none" stroke="black" d="M155477.62,-20012.71C147598.74,-27492.47 132382.85,-41945.1 124290.8,-49635.08"/>
<polygon fill="black" stroke="black" points="124288.23,-49632.69 124283.39,-49642.12 124293.05,-49637.76 124288.23,-49632.69"/>
<text text-anchor="middle" x="139807.21" y="-34812.69" font-family="Times,serif" font-size="14.00">親子関係、冷淡な優しさ</text>
</g>
<!-- 母 -->
<g id="node8" class="node">
<title>母</title>
<ellipse fill="none" stroke="black" cx="176793.72" cy="-45530.67" rx="14040" ry="4680"/>
<text text-anchor="middle" x="176793.72" y="-45529.97" font-family="Times,serif" font-size="14.00">母</text>
</g>
<!-- 父&#45;&gt;母 -->
<g id="edge7" class="edge">
<title>父&#45;&gt;母</title>
<path fill="none" stroke="black" d="M163161.98,-20218.57C166252.13,-25956.52 171299.14,-35328.05 174308.08,-40915.21"/>
<polygon fill="black" stroke="black" points="174305.08,-40917.02 174312.9,-40924.16 174311.24,-40913.7 174305.08,-40917.02"/>
<text text-anchor="middle" x="168679.38" y="-30576.69" font-family="Times,serif" font-size="14.00">財産目当ての結婚</text>
</g>
<!-- 母&#45;&gt;ヴラジーミル・ペトローヴィチ -->
<g id="edge6" class="edge">
<title>母&#45;&gt;ヴラジーミル・ペトローヴィチ</title>
<path fill="none" stroke="black" d="M164122.95,-47546.75C155110.38,-48980.76 142979.94,-50910.86 133555.02,-52410.48"/>
<polygon fill="black" stroke="black" points="133554.42,-52407.04 133545.09,-52412.06 133555.52,-52413.95 133554.42,-52407.04"/>
<text text-anchor="middle" x="148775.99" y="-49988.42" font-family="Times,serif" font-size="14.00">親子関係、構わない</text>
</g>
<!-- ザセーキナ -->
<g id="node9" class="node">
<title>ザセーキナ</title>
<ellipse fill="none" stroke="black" cx="205207.01" cy="-6286.4" rx="12960" ry="4320"/>
<text text-anchor="middle" x="205207.01" y="-6285.7" font-family="Times,serif" font-size="14.00">ザセーキナ</text>
</g>
<!-- ザセーキナ&#45;&gt;父 -->
<g id="edge9" class="edge">
<title>ザセーキナ&#45;&gt;父</title>
<path fill="none" stroke="black" d="M194102.73,-8514.21C187844.26,-9769.82 179994.36,-11344.72 173454.89,-12656.71"/>
<polygon fill="black" stroke="black" points="173454.12,-12653.29 173445.01,-12658.69 173455.5,-12660.16 173454.12,-12653.29"/>
<text text-anchor="middle" x="183736.81" y="-10595.26" font-family="Times,serif" font-size="14.00">離れを借りる</text>
</g>
<!-- ザセーキナ&#45;&gt;母 -->
<g id="edge11" class="edge">
<title>ザセーキナ&#45;&gt;母</title>
<path fill="none" stroke="black" d="M202166.5,-10485.94C196790.18,-17911.67 185649.91,-33298.55 180093.91,-40972.47"/>
<polygon fill="black" stroke="black" points="180090.83,-40970.75 180087.8,-40980.91 180096.5,-40974.86 180090.83,-40970.75"/>
<text text-anchor="middle" x="191046.83" y="-25739" font-family="Times,serif" font-size="14.00">訴訟の手伝いをして欲しい</text>
</g>
</g>
</svg>
