<?xml version="1.0" encoding="UTF-8" standalone="no"?>
<!DOCTYPE svg PUBLIC "-//W3C//DTD SVG 1.1//EN"
 "http://www.w3.org/Graphics/SVG/1.1/DTD/svg11.dtd">
<!-- Generated by graphviz version 2.42.3 (20191010.1750)
 -->
<!-- Title: %3 Pages: 1 -->
<svg width="43200pt" height="18770pt"
 viewBox="0.00 0.00 43200.00 18770.13" xmlns="http://www.w3.org/2000/svg" xmlns:xlink="http://www.w3.org/1999/xlink">
<g id="graph0" class="graph" transform="scale(6.39 6.39) rotate(0) translate(4 119974.46)">
<title>%3</title>
<polygon fill="white" stroke="transparent" points="-4,4 -4,-119974.46 276129.86,-119974.46 276129.86,4 -4,4"/>
<!-- セルゲイ・ニコラーエヴィチ -->
<g id="node1" class="node">
<title>セルゲイ・ニコラーエヴィチ</title>
<ellipse fill="none" stroke="black" cx="209550.31" cy="-69845" rx="12960" ry="4320"/>
<text text-anchor="middle" x="209550.31" y="-69844.3" font-family="Times,serif" font-size="14.00">セルゲイ・ニコラーエヴィチ</text>
</g>
<!-- 可愛らしいお嬢さん -->
<g id="node5" class="node">
<title>可愛らしいお嬢さん</title>
<ellipse fill="none" stroke="black" cx="156035" cy="-69845" rx="11880" ry="3960"/>
<text text-anchor="middle" x="156035" y="-69844.3" font-family="Times,serif" font-size="14.00">可愛らしいお嬢さん</text>
</g>
<!-- セルゲイ・ニコラーエヴィチ&#45;&gt;可愛らしいお嬢さん -->
<g id="edge1" class="edge">
<title>セルゲイ・ニコラーエヴィチ&#45;&gt;可愛らしいお嬢さん</title>
<path fill="none" stroke="black" d="M196590.15,-69845C187857.28,-69845 176425.13,-69845 167925.31,-69845"/>
<polygon fill="black" stroke="black" points="167925.19,-69841.5 167915.19,-69845 167925.19,-69848.5 167925.19,-69841.5"/>
<text text-anchor="middle" x="182208.73" y="-69856.62" font-family="Times,serif" font-size="14.00">18の時に恋した</text>
</g>
<!-- 乳母 -->
<g id="node6" class="node">
<title>乳母</title>
<ellipse fill="none" stroke="black" cx="264245.86" cy="-69845" rx="11880" ry="3960"/>
<text text-anchor="middle" x="264245.86" y="-69844.3" font-family="Times,serif" font-size="14.00">乳母</text>
</g>
<!-- セルゲイ・ニコラーエヴィチ&#45;&gt;乳母 -->
<g id="edge2" class="edge">
<title>セルゲイ・ニコラーエヴィチ&#45;&gt;乳母</title>
<path fill="none" stroke="black" d="M222510.5,-69845C231560.68,-69845 243549.92,-69845 252355.57,-69845"/>
<polygon fill="black" stroke="black" points="252355.65,-69848.5 252365.65,-69845 252355.65,-69841.5 252355.65,-69848.5"/>
<text text-anchor="middle" x="237370.04" y="-69854.8" font-family="Times,serif" font-size="14.00">６歳のの時に恋した</text>
</g>
<!-- アンナ -->
<g id="node2" class="node">
<title>アンナ</title>
<ellipse fill="none" stroke="black" cx="11880" cy="-3960" rx="11880" ry="3960"/>
<text text-anchor="middle" x="11880" y="-3959.3" font-family="Times,serif" font-size="14.00">アンナ</text>
</g>
<!-- ヴラジーミル・ペトローヴィチ -->
<g id="node3" class="node">
<title>ヴラジーミル・ペトローヴィチ</title>
<ellipse fill="none" stroke="black" cx="121356.67" cy="-55891.86" rx="17280" ry="5760"/>
<text text-anchor="middle" x="121356.67" y="-55891.16" font-family="Times,serif" font-size="14.00">ヴラジーミル・ペトローヴィチ</text>
</g>
<!-- 父 -->
<g id="node7" class="node">
<title>父</title>
<ellipse fill="none" stroke="black" cx="163866.36" cy="-15514.39" rx="15120" ry="5040"/>
<text text-anchor="middle" x="163866.36" y="-15513.69" font-family="Times,serif" font-size="14.00">父</text>
</g>
<!-- ヴラジーミル・ペトローヴィチ&#45;&gt;父 -->
<g id="edge8" class="edge">
<title>ヴラジーミル・ペトローヴィチ&#45;&gt;父</title>
<path fill="none" stroke="black" d="M127085.08,-50457.38C135460.13,-42506.13 150911.8,-27829.38 158858.05,-20277.76"/>
<polygon fill="black" stroke="black" points="158860.49,-20280.27 158865.33,-20270.84 158855.67,-20275.19 158860.49,-20280.27"/>
<text text-anchor="middle" x="142782.78" y="-35377.37" font-family="Times,serif" font-size="14.00">気どり澄ました、うぬぼれの強い、独りよがりの男だと思う</text>
</g>
<!-- ジナイーダ -->
<g id="node10" class="node">
<title>ジナイーダ</title>
<ellipse fill="none" stroke="black" cx="110785.46" cy="-116010.46" rx="11880" ry="3960"/>
<text text-anchor="middle" x="110785.46" y="-116009.76" font-family="Times,serif" font-size="14.00">ジナイーダ</text>
</g>
<!-- ヴラジーミル・ペトローヴィチ&#45;&gt;ジナイーダ -->
<g id="edge10" class="edge">
<title>ヴラジーミル・ペトローヴィチ&#45;&gt;ジナイーダ</title>
<path fill="none" stroke="black" d="M120345.53,-61642.24C118213.53,-73766.93 113304,-101687.5 111482.37,-112047.16"/>
<polygon fill="black" stroke="black" points="111478.9,-112046.66 111480.62,-112057.11 111485.8,-112047.87 111478.9,-112046.66"/>
<text text-anchor="middle" x="115850.95" y="-86854.5" font-family="Times,serif" font-size="14.00">知り合いになりたい</text>
</g>
<!-- 主人 -->
<g id="node4" class="node">
<title>主人</title>
<ellipse fill="none" stroke="black" cx="57056.3" cy="-32483.9" rx="12960" ry="4320"/>
<text text-anchor="middle" x="57056.3" y="-32483.2" font-family="Times,serif" font-size="14.00">主人</text>
</g>
<!-- 主人&#45;&gt;アンナ -->
<g id="edge3" class="edge">
<title>主人&#45;&gt;アンナ</title>
<path fill="none" stroke="black" d="M51005.38,-28663.41C42194.37,-23100.22 25957.53,-12848.42 17435.17,-7467.48"/>
<polygon fill="black" stroke="black" points="17436.91,-7464.44 17426.59,-7462.06 17433.17,-7470.36 17436.91,-7464.44"/>
<text text-anchor="middle" x="34164.77" y="-18075.25" font-family="Times,serif" font-size="14.00">好きになって結婚</text>
</g>
<!-- 主人&#45;&gt;ヴラジーミル・ペトローヴィチ -->
<g id="edge4" class="edge">
<title>主人&#45;&gt;ヴラジーミル・ペトローヴィチ</title>
<path fill="none" stroke="black" d="M65808.41,-35670.03C77170.83,-39806.41 97037.99,-47038.87 109677.58,-51640.2"/>
<polygon fill="black" stroke="black" points="109676.54,-51643.54 109687.13,-51643.67 109678.93,-51636.96 109676.54,-51643.54"/>
<text text-anchor="middle" x="87680" y="-43664.91" font-family="Times,serif" font-size="14.00">初恋の話が聞きたい</text>
</g>
<!-- 父&#45;&gt;ヴラジーミル・ペトローヴィチ -->
<g id="edge5" class="edge">
<title>父&#45;&gt;ヴラジーミル・ペトローヴィチ</title>
<path fill="none" stroke="black" d="M158853.65,-20269.41C150904.49,-27815.91 135452.38,-42492.85 127080.04,-50448.97"/>
<polygon fill="black" stroke="black" points="127077.6,-50446.46 127072.76,-50455.89 127082.42,-50451.53 127077.6,-50446.46"/>
<text text-anchor="middle" x="142889.84" y="-35347.99" font-family="Times,serif" font-size="14.00">親子関係、冷淡な優しさ</text>
</g>
<!-- 母 -->
<g id="node8" class="node">
<title>母</title>
<ellipse fill="none" stroke="black" cx="180540.11" cy="-46475.04" rx="15120" ry="5040"/>
<text text-anchor="middle" x="180540.11" y="-46474.34" font-family="Times,serif" font-size="14.00">母</text>
</g>
<!-- 父&#45;&gt;母 -->
<g id="edge7" class="edge">
<title>父&#45;&gt;母</title>
<path fill="none" stroke="black" d="M166538.06,-20475.34C169647.46,-26249.02 174752.08,-35727.54 177863.55,-41505.08"/>
<polygon fill="black" stroke="black" points="177860.57,-41506.92 177868.39,-41514.07 177866.73,-41503.61 177860.57,-41506.92"/>
<text text-anchor="middle" x="172145.15" y="-31000.01" font-family="Times,serif" font-size="14.00">財産目当ての結婚</text>
</g>
<!-- 母&#45;&gt;ヴラジーミル・ペトローヴィチ -->
<g id="edge6" class="edge">
<title>母&#45;&gt;ヴラジーミル・ペトローヴィチ</title>
<path fill="none" stroke="black" d="M166894.89,-48646.16C157961.77,-50067.53 146264.11,-51928.78 136961.53,-53408.93"/>
<polygon fill="black" stroke="black" points="136960.63,-53405.53 136951.3,-53410.56 136961.73,-53412.45 136960.63,-53405.53"/>
<text text-anchor="middle" x="151844.21" y="-51037.35" font-family="Times,serif" font-size="14.00">公爵夫人へのお使いを頼む</text>
</g>
<!-- ザセーキナ -->
<g id="node9" class="node">
<title>ザセーキナ</title>
<ellipse fill="none" stroke="black" cx="209598.86" cy="-6339.25" rx="12960" ry="4320"/>
<text text-anchor="middle" x="209598.86" y="-6338.55" font-family="Times,serif" font-size="14.00">ザセーキナ</text>
</g>
<!-- ザセーキナ&#45;&gt;父 -->
<g id="edge9" class="edge">
<title>ザセーキナ&#45;&gt;父</title>
<path fill="none" stroke="black" d="M198494.56,-8567.07C191960.04,-9878.06 183664.57,-11542.35 176831.21,-12913.3"/>
<polygon fill="black" stroke="black" points="176830.31,-12909.91 176821.19,-12915.31 176831.69,-12916.78 176830.31,-12909.91"/>
<text text-anchor="middle" x="187620.88" y="-10749.99" font-family="Times,serif" font-size="14.00">離れを借りる</text>
</g>
<!-- ザセーキナ&#45;&gt;母 -->
<g id="edge11" class="edge">
<title>ザセーキナ&#45;&gt;母</title>
<path fill="none" stroke="black" d="M206558.3,-10538.86C201143.07,-18018.34 189856.97,-33606.64 184093.44,-41567.2"/>
<polygon fill="black" stroke="black" points="184090.4,-41565.42 184087.37,-41575.58 184096.07,-41569.53 184090.4,-41565.42"/>
<text text-anchor="middle" x="195242.5" y="-26062.83" font-family="Times,serif" font-size="14.00">訴訟の手伝いをして欲しい</text>
</g>
</g>
</svg>
