<?xml version="1.0" encoding="UTF-8" standalone="no"?>
<!DOCTYPE svg PUBLIC "-//W3C//DTD SVG 1.1//EN"
 "http://www.w3.org/Graphics/SVG/1.1/DTD/svg11.dtd">
<!-- Generated by graphviz version 2.42.3 (20191010.1750)
 -->
<!-- Title: %3 Pages: 1 -->
<svg width="43200pt" height="27502pt"
 viewBox="0.00 0.00 43200.00 27502.44" xmlns="http://www.w3.org/2000/svg" xmlns:xlink="http://www.w3.org/1999/xlink">
<g id="graph0" class="graph" transform="scale(9.57 9.57) rotate(0) translate(4 263149.56)">
<title>%3</title>
<polygon fill="white" stroke="transparent" points="-4,4 -4,-263149.56 413349.67,-263149.56 413349.67,4 -4,4"/>
<!-- セルゲイ・ニコラーエヴィチ -->
<g id="node1" class="node">
<title>セルゲイ・ニコラーエヴィチ</title>
<ellipse fill="none" stroke="black" cx="167975.31" cy="-29965" rx="12960" ry="4320"/>
<text text-anchor="middle" x="167975.31" y="-29964.3" font-family="Times,serif" font-size="14.00">セルゲイ・ニコラーエヴィチ</text>
</g>
<!-- 可愛らしいお嬢さん -->
<g id="node5" class="node">
<title>可愛らしいお嬢さん</title>
<ellipse fill="none" stroke="black" cx="114460" cy="-29965" rx="11880" ry="3960"/>
<text text-anchor="middle" x="114460" y="-29964.3" font-family="Times,serif" font-size="14.00">可愛らしいお嬢さん</text>
</g>
<!-- セルゲイ・ニコラーエヴィチ&#45;&gt;可愛らしいお嬢さん -->
<g id="edge1" class="edge">
<title>セルゲイ・ニコラーエヴィチ&#45;&gt;可愛らしいお嬢さん</title>
<path fill="none" stroke="black" d="M155015.15,-29965C146282.28,-29965 134850.13,-29965 126350.31,-29965"/>
<polygon fill="black" stroke="black" points="126350.19,-29961.5 126340.19,-29965 126350.19,-29968.5 126350.19,-29961.5"/>
<text text-anchor="middle" x="140633.73" y="-29976.62" font-family="Times,serif" font-size="14.00">18の時に恋した</text>
</g>
<!-- 乳母 -->
<g id="node6" class="node">
<title>乳母</title>
<ellipse fill="none" stroke="black" cx="222670.86" cy="-29965" rx="11880" ry="3960"/>
<text text-anchor="middle" x="222670.86" y="-29964.3" font-family="Times,serif" font-size="14.00">乳母</text>
</g>
<!-- セルゲイ・ニコラーエヴィチ&#45;&gt;乳母 -->
<g id="edge2" class="edge">
<title>セルゲイ・ニコラーエヴィチ&#45;&gt;乳母</title>
<path fill="none" stroke="black" d="M180935.5,-29965C189985.68,-29965 201974.92,-29965 210780.57,-29965"/>
<polygon fill="black" stroke="black" points="210780.65,-29968.5 210790.65,-29965 210780.65,-29961.5 210780.65,-29968.5"/>
<text text-anchor="middle" x="195795.04" y="-29974.8" font-family="Times,serif" font-size="14.00">６歳のの時に恋した</text>
</g>
<!-- アンナ -->
<g id="node2" class="node">
<title>アンナ</title>
<ellipse fill="none" stroke="black" cx="11880" cy="-149835.89" rx="11880" ry="3960"/>
<text text-anchor="middle" x="11880" y="-149835.19" font-family="Times,serif" font-size="14.00">アンナ</text>
</g>
<!-- ヴラジーミル・ペトローヴィチ -->
<g id="node3" class="node">
<title>ヴラジーミル・ペトローヴィチ</title>
<ellipse fill="none" stroke="black" cx="198607.94" cy="-146932.41" rx="37800" ry="12600"/>
<text text-anchor="middle" x="198607.94" y="-146931.71" font-family="Times,serif" font-size="14.00">ヴラジーミル・ペトローヴィチ</text>
</g>
<!-- 父 -->
<g id="node7" class="node">
<title>父</title>
<ellipse fill="none" stroke="black" cx="260598.3" cy="-66273.59" rx="24840" ry="8280"/>
<text text-anchor="middle" x="260598.3" y="-66272.89" font-family="Times,serif" font-size="14.00">父</text>
</g>
<!-- ヴラジーミル・ペトローヴィチ&#45;&gt;父 -->
<g id="edge8" class="edge">
<title>ヴラジーミル・ペトローヴィチ&#45;&gt;父</title>
<path fill="none" stroke="black" d="M207994.81,-134726.88C220840.65,-118016.72 243541.91,-88478.52 254432.5,-74303.18"/>
<polygon fill="black" stroke="black" points="254435.42,-74305.14 254438.73,-74295.07 254429.87,-74300.87 254435.42,-74305.14"/>
<text text-anchor="middle" x="231115.66" y="-104524.83" font-family="Times,serif" font-size="14.00">夜に出かけているのを見かける</text>
</g>
<!-- ジナイーダ -->
<g id="node10" class="node">
<title>ジナイーダ</title>
<ellipse fill="none" stroke="black" cx="306870.07" cy="-159350.49" rx="41040" ry="13680"/>
<text text-anchor="middle" x="306870.07" y="-159349.79" font-family="Times,serif" font-size="14.00">ジナイーダ</text>
</g>
<!-- ヴラジーミル・ペトローヴィチ&#45;&gt;ジナイーダ -->
<g id="edge10" class="edge">
<title>ヴラジーミル・ペトローヴィチ&#45;&gt;ジナイーダ</title>
<path fill="none" stroke="black" d="M234345.18,-151038.05C245145.83,-152277.36 257055.29,-153643.46 268047.17,-154903.91"/>
<polygon fill="black" stroke="black" points="268046.9,-154907.4 268057.24,-154905.06 268047.7,-154900.44 268046.9,-154907.4"/>
<text text-anchor="middle" x="251105.66" y="-152980.78" font-family="Times,serif" font-size="14.00">奇妙な娘になっていくと思う</text>
</g>
<!-- ルーシン -->
<g id="node13" class="node">
<title>ルーシン</title>
<ellipse fill="none" stroke="black" cx="233829.69" cy="-211125.42" rx="16200" ry="5400"/>
<text text-anchor="middle" x="233829.69" y="-211124.72" font-family="Times,serif" font-size="14.00">ルーシン</text>
</g>
<!-- ヴラジーミル・ペトローヴィチ&#45;&gt;ルーシン -->
<g id="edge30" class="edge">
<title>ヴラジーミル・ペトローヴィチ&#45;&gt;ルーシン</title>
<path fill="none" stroke="black" d="M205402.58,-159327.25C213115.41,-173388.63 225345.52,-195677.41 230905.81,-205804.71"/>
<polygon fill="black" stroke="black" points="230902.76,-205806.43 230910.64,-205813.51 230908.9,-205803.06 230902.76,-205806.43"/>
<text text-anchor="middle" x="218000.19" y="-182575.78" font-family="Times,serif" font-size="14.00">煙たくなったと同時に引き付けられる感じがする</text>
</g>
<!-- マレーフスキイ伯爵 -->
<g id="node16" class="node">
<title>マレーフスキイ伯爵</title>
<ellipse fill="none" stroke="black" cx="263567.78" cy="-138160.62" rx="18360" ry="6120"/>
<text text-anchor="middle" x="263567.78" y="-138159.92" font-family="Times,serif" font-size="14.00">マレーフスキイ伯爵</text>
</g>
<!-- ヴラジーミル・ペトローヴィチ&#45;&gt;マレーフスキイ伯爵 -->
<g id="edge24" class="edge">
<title>ヴラジーミル・ペトローヴィチ&#45;&gt;マレーフスキイ伯爵</title>
<path fill="none" stroke="black" d="M233649.66,-142207.38C238128.66,-141602.5 242542.27,-141006.27 246546.96,-140465.08"/>
<polygon fill="black" stroke="black" points="246547.79,-140468.5 246557.24,-140463.69 246546.86,-140461.57 246547.79,-140468.5"/>
<text text-anchor="middle" x="240049.31" y="-141346.03" font-family="Times,serif" font-size="14.00">胡散臭いと思う</text>
</g>
<!-- 公爵夫人の生みの息子 -->
<g id="node17" class="node">
<title>公爵夫人の生みの息子</title>
<ellipse fill="none" stroke="black" cx="135330.64" cy="-209689.56" rx="11880" ry="3960"/>
<text text-anchor="middle" x="135330.64" y="-209688.86" font-family="Times,serif" font-size="14.00">公爵夫人の生みの息子</text>
</g>
<!-- ヴラジーミル・ペトローヴィチ&#45;&gt;公爵夫人の生みの息子 -->
<g id="edge34" class="edge">
<title>ヴラジーミル・ペトローヴィチ&#45;&gt;公爵夫人の生みの息子</title>
<path fill="none" stroke="black" d="M186565.48,-158875.89C172000.55,-173321.08 148295.97,-196830.82 139122.75,-205928.62"/>
<polygon fill="black" stroke="black" points="139120.25,-205926.18 139115.62,-205935.7 139125.18,-205931.15 139120.25,-205926.18"/>
<text text-anchor="middle" x="162740.3" y="-182412.06" font-family="Times,serif" font-size="14.00">ジナイーダに頼まれて面倒をみる</text>
</g>
<!-- 主人 -->
<g id="node4" class="node">
<title>主人</title>
<ellipse fill="none" stroke="black" cx="92043.01" cy="-134672.09" rx="12960" ry="4320"/>
<text text-anchor="middle" x="92043.01" y="-134671.39" font-family="Times,serif" font-size="14.00">主人</text>
</g>
<!-- 主人&#45;&gt;アンナ -->
<g id="edge3" class="edge">
<title>主人&#45;&gt;アンナ</title>
<path fill="none" stroke="black" d="M80771.31,-136804.27C65191.01,-139751.47 37294.52,-145028.43 22222.33,-147879.52"/>
<polygon fill="black" stroke="black" points="22221.5,-147876.11 22212.32,-147881.41 22222.8,-147882.99 22221.5,-147876.11"/>
<text text-anchor="middle" x="51441.31" y="-142351.69" font-family="Times,serif" font-size="14.00">好きになって結婚</text>
</g>
<!-- 主人&#45;&gt;ヴラジーミル・ペトローヴィチ -->
<g id="edge4" class="edge">
<title>主人&#45;&gt;ヴラジーミル・ペトローヴィチ</title>
<path fill="none" stroke="black" d="M104294.17,-136081.59C118510.19,-137717.14 142594.36,-140488.04 162865.89,-142820.28"/>
<polygon fill="black" stroke="black" points="162865.76,-142823.79 162876.09,-142821.46 162866.56,-142816.84 162865.76,-142823.79"/>
<text text-anchor="middle" x="133517.03" y="-139460.73" font-family="Times,serif" font-size="14.00">初恋の話が聞きたい</text>
</g>
<!-- 父&#45;&gt;ヴラジーミル・ペトローヴィチ -->
<g id="edge5" class="edge">
<title>父&#45;&gt;ヴラジーミル・ペトローヴィチ</title>
<path fill="none" stroke="black" d="M254428.67,-74294.25C243534.98,-88463.55 220832.47,-118002.53 207989.15,-134717.83"/>
<polygon fill="black" stroke="black" points="207986.3,-134715.8 207982.98,-134725.86 207991.85,-134720.06 207986.3,-134715.8"/>
<text text-anchor="middle" x="231083.12" y="-104494.84" font-family="Times,serif" font-size="14.00">教育には口を出さないが、自由にさせる</text>
</g>
<!-- 母 -->
<g id="node8" class="node">
<title>母</title>
<ellipse fill="none" stroke="black" cx="238029.27" cy="-102827.94" rx="23760" ry="7920"/>
<text text-anchor="middle" x="238029.27" y="-102827.24" font-family="Times,serif" font-size="14.00">母</text>
</g>
<!-- 父&#45;&gt;母 -->
<g id="edge7" class="edge">
<title>父&#45;&gt;母</title>
<path fill="none" stroke="black" d="M255584.63,-74383.18C251775.77,-80549.6 246570.36,-88980.7 242818.01,-95061.03"/>
<polygon fill="black" stroke="black" points="242814.96,-95059.31 242812.69,-95069.66 242820.92,-95062.99 242814.96,-95059.31"/>
<text text-anchor="middle" x="249152.32" y="-84731.9" font-family="Times,serif" font-size="14.00">言い争いをする</text>
</g>
<!-- 父&#45;&gt;ジナイーダ -->
<g id="edge36" class="edge">
<title>父&#45;&gt;ジナイーダ</title>
<path fill="none" stroke="black" d="M264654.92,-74442.63C272625.6,-90483.29 290400.45,-126238.55 300150.94,-145845.85"/>
<polygon fill="black" stroke="black" points="300147.82,-145847.43 300155.41,-145854.83 300154.09,-145844.32 300147.82,-145847.43"/>
<text text-anchor="middle" x="282298.56" y="-110154.04" font-family="Times,serif" font-size="14.00">引越ししてなお不倫を続けていた</text>
</g>
<!-- 公爵 -->
<g id="node12" class="node">
<title>公爵</title>
<ellipse fill="none" stroke="black" cx="308256.51" cy="-4320" rx="12960" ry="4320"/>
<text text-anchor="middle" x="308256.51" y="-4319.3" font-family="Times,serif" font-size="14.00">公爵</text>
</g>
<!-- 父&#45;&gt;公爵 -->
<g id="edge15" class="edge">
<title>父&#45;&gt;公爵</title>
<path fill="none" stroke="black" d="M266768.49,-58252.61C277015.16,-44932.38 297188.91,-18707.39 305031.26,-8512.67"/>
<polygon fill="black" stroke="black" points="305034.04,-8514.8 305037.37,-8504.74 305028.49,-8510.53 305034.04,-8514.8"/>
<text text-anchor="middle" x="285787.88" y="-33392.44" font-family="Times,serif" font-size="14.00">教育はあるが薄っぺらい男だと思う</text>
</g>
<!-- 母&#45;&gt;ヴラジーミル・ペトローヴィチ -->
<g id="edge6" class="edge">
<title>母&#45;&gt;ヴラジーミル・ペトローヴィチ</title>
<path fill="none" stroke="black" d="M231244.79,-110418.39C225243.65,-117132.45 216383.02,-127045.7 209407.96,-134849.38"/>
<polygon fill="black" stroke="black" points="209405.31,-134847.09 209401.26,-134856.88 209410.53,-134851.76 209405.31,-134847.09"/>
<text text-anchor="middle" x="220242.38" y="-122643.69" font-family="Times,serif" font-size="14.00">公爵夫人へのお使いを頼む</text>
</g>
<!-- 母&#45;&gt;父 -->
<g id="edge28" class="edge">
<title>母&#45;&gt;父</title>
<path fill="none" stroke="black" d="M242825.34,-95070.63C246579.57,-88992.78 251785.01,-80561.75 255592.05,-74392.95"/>
<polygon fill="black" stroke="black" points="255595.18,-74394.54 255597.45,-74384.19 255589.22,-74390.86 255595.18,-74394.54"/>
<text text-anchor="middle" x="249313.06" y="-84741.59" font-family="Times,serif" font-size="14.00">ジナイーダとの不貞を問いただす</text>
</g>
<!-- ザセーキナ -->
<g id="node9" class="node">
<title>ザセーキナ</title>
<ellipse fill="none" stroke="black" cx="307281.78" cy="-80053.31" rx="18360" ry="6120"/>
<text text-anchor="middle" x="307281.78" y="-80052.61" font-family="Times,serif" font-size="14.00">ザセーキナ</text>
</g>
<!-- 母&#45;&gt;ザセーキナ -->
<g id="edge14" class="edge">
<title>母&#45;&gt;ザセーキナ</title>
<path fill="none" stroke="black" d="M254952.8,-97268.61C267050.63,-93291.43 283092.29,-88015.74 294210.71,-84357.61"/>
<polygon fill="black" stroke="black" points="294211.98,-84360.88 294220.39,-84354.43 294209.79,-84354.23 294211.98,-84360.88"/>
<text text-anchor="middle" x="274427.97" y="-90822.91" font-family="Times,serif" font-size="14.00">こきおろし、ついでに令嬢の悪口まで並べたてた</text>
</g>
<!-- 母&#45;&gt;ジナイーダ -->
<g id="edge17" class="edge">
<title>母&#45;&gt;ジナイーダ</title>
<path fill="none" stroke="black" d="M246966.96,-110166.34C258220.47,-119406.16 277734.84,-135428.66 291424.59,-146668.8"/>
<polygon fill="black" stroke="black" points="291422.47,-146671.59 291432.42,-146675.23 291426.92,-146666.18 291422.47,-146671.59"/>
<text text-anchor="middle" x="269125.78" y="-128427.37" font-family="Times,serif" font-size="14.00">高慢ちきな娘、と思う</text>
</g>
<!-- 母&#45;&gt;マレーフスキイ伯爵 -->
<g id="edge32" class="edge">
<title>母&#45;&gt;マレーフスキイ伯爵</title>
<path fill="none" stroke="black" d="M243588.04,-110528.23C248293.8,-117041.35 254943.08,-126240.39 259255.04,-132202.79"/>
<polygon fill="black" stroke="black" points="259252.26,-132204.93 259260.96,-132210.98 259257.93,-132200.83 259252.26,-132204.93"/>
<text text-anchor="middle" x="251393.54" y="-121375.31" font-family="Times,serif" font-size="14.00">気に入る</text>
</g>
<!-- ザセーキナ&#45;&gt;父 -->
<g id="edge9" class="edge">
<title>ザセーキナ&#45;&gt;父</title>
<path fill="none" stroke="black" d="M293536.06,-75995.94C289048.59,-74671.36 283988.19,-73177.66 279204.76,-71765.72"/>
<polygon fill="black" stroke="black" points="279205.7,-71762.35 279195.12,-71762.88 279203.72,-71769.06 279205.7,-71762.35"/>
<text text-anchor="middle" x="286328.41" y="-73890.63" font-family="Times,serif" font-size="14.00">離れを借りる</text>
</g>
<!-- ザセーキナ&#45;&gt;母 -->
<g id="edge11" class="edge">
<title>ザセーキナ&#45;&gt;母</title>
<path fill="none" stroke="black" d="M294203.36,-84348.63C283082.52,-88004.18 267040.17,-93279.76 254943.99,-97259.1"/>
<polygon fill="black" stroke="black" points="254942.7,-97255.84 254934.3,-97262.29 254944.89,-97262.49 254942.7,-97255.84"/>
<text text-anchor="middle" x="274490.3" y="-90792.66" font-family="Times,serif" font-size="14.00">訴訟の手伝いをして欲しい</text>
</g>
<!-- ザセーキナ&#45;&gt;ジナイーダ -->
<g id="edge12" class="edge">
<title>ザセーキナ&#45;&gt;ジナイーダ</title>
<path fill="none" stroke="black" d="M307250.01,-86173.43C307184.21,-98845.54 307031.67,-128225.96 306941.15,-145659.98"/>
<polygon fill="black" stroke="black" points="306937.65,-145660.33 306941.1,-145670.35 306944.65,-145660.37 306937.65,-145660.33"/>
<text text-anchor="middle" x="307074.58" y="-115926.5" font-family="Times,serif" font-size="14.00">母ー娘</text>
</g>
<!-- ジナイーダ&#45;&gt;ヴラジーミル・ペトローヴィチ -->
<g id="edge18" class="edge">
<title>ジナイーダ&#45;&gt;ヴラジーミル・ペトローヴィチ</title>
<path fill="none" stroke="black" d="M268069.41,-154893.36C257078.87,-153632.34 245169.4,-152266.32 234367.34,-151027.72"/>
<polygon fill="black" stroke="black" points="234367.29,-151024.19 234356.95,-151026.53 234366.49,-151031.15 234367.29,-151024.19"/>
<text text-anchor="middle" x="251197.37" y="-152949.34" font-family="Times,serif" font-size="14.00">避ける</text>
</g>
<!-- ジナイーダ&#45;&gt;父 -->
<g id="edge29" class="edge">
<title>ジナイーダ&#45;&gt;父</title>
<path fill="none" stroke="black" d="M300166.06,-145854.15C290424.31,-126252.27 272649.67,-90498.78 264668.34,-74451.54"/>
<polygon fill="black" stroke="black" points="264671.36,-74449.75 264663.78,-74442.36 264665.1,-74452.87 264671.36,-74449.75"/>
<text text-anchor="middle" x="282501.2" y="-110162.65" font-family="Times,serif" font-size="14.00">一緒に馬に乗ろうかと思う</text>
</g>
<!-- ベロヴゾーロフ -->
<g id="node11" class="node">
<title>ベロヴゾーロフ</title>
<ellipse fill="none" stroke="black" cx="399305.67" cy="-189668.63" rx="14040" ry="4680"/>
<text text-anchor="middle" x="399305.67" y="-189667.93" font-family="Times,serif" font-size="14.00">ベロヴゾーロフ</text>
</g>
<!-- ジナイーダ&#45;&gt;ベロヴゾーロフ -->
<g id="edge22" class="edge">
<title>ジナイーダ&#45;&gt;ベロヴゾーロフ</title>
<path fill="none" stroke="black" d="M336113.32,-168948.71C354329.9,-174924.6 376632.37,-182238.95 389281.23,-186385.32"/>
<polygon fill="black" stroke="black" points="389280.19,-186388.66 389290.78,-186388.45 389282.37,-186382.01 389280.19,-186388.66"/>
<text text-anchor="middle" x="362564.27" y="-177676.81" font-family="Times,serif" font-size="14.00">『わたしの猛獣さん』と呼び、入用な人物</text>
</g>
<!-- ジナイーダ&#45;&gt;ルーシン -->
<g id="edge25" class="edge">
<title>ジナイーダ&#45;&gt;ルーシン</title>
<path fill="none" stroke="black" d="M289397.44,-171728.85C273805.37,-182779.37 251780.7,-198392.33 240726.27,-206231.67"/>
<polygon fill="black" stroke="black" points="240724.05,-206228.95 240717.92,-206237.59 240728.1,-206234.66 240724.05,-206228.95"/>
<text text-anchor="middle" x="264963.86" y="-188990.06" font-family="Times,serif" font-size="14.00">尊敬はするが、容赦無く接する</text>
</g>
<!-- マイダーノフ -->
<g id="node14" class="node">
<title>マイダーノフ</title>
<ellipse fill="none" stroke="black" cx="308901.2" cy="-231856.45" rx="12960" ry="4320"/>
<text text-anchor="middle" x="308901.2" y="-231855.75" font-family="Times,serif" font-size="14.00">マイダーノフ</text>
</g>
<!-- ジナイーダ&#45;&gt;マイダーノフ -->
<g id="edge23" class="edge">
<title>ジナイーダ&#45;&gt;マイダーノフ</title>
<path fill="none" stroke="black" d="M307247.86,-173030.06C307713.02,-189716.74 308478.01,-217001.2 308776.48,-227526.37"/>
<polygon fill="black" stroke="black" points="308772.99,-227526.59 308776.77,-227536.49 308779.99,-227526.39 308772.99,-227526.59"/>
<text text-anchor="middle" x="307852.64" y="-200288.02" font-family="Times,serif" font-size="14.00">詩的な素質の相手をしてもらうが信用はしていない</text>
</g>
<!-- ジナイーダ&#45;&gt;マレーフスキイ伯爵 -->
<g id="edge26" class="edge">
<title>ジナイーダ&#45;&gt;マレーフスキイ伯爵</title>
<path fill="none" stroke="black" d="M283765.44,-148044.3C280314.33,-146355.5 276912.68,-144690.91 273913.35,-143223.2"/>
<polygon fill="black" stroke="black" points="273914.8,-143220.01 273904.28,-143218.76 273911.73,-143226.3 273914.8,-143220.01"/>
<text text-anchor="middle" x="278804.4" y="-145643.55" font-family="Times,serif" font-size="14.00">寵愛しない</text>
</g>
<!-- ベロヴゾーロフ&#45;&gt;ジナイーダ -->
<g id="edge13" class="edge">
<title>ベロヴゾーロフ&#45;&gt;ジナイーダ</title>
<path fill="none" stroke="black" d="M389304.63,-186383.75C376666.7,-182236.26 354365.16,-174920.85 336142.75,-168945.04"/>
<polygon fill="black" stroke="black" points="336143.75,-168941.68 336133.16,-168941.89 336141.57,-168948.33 336143.75,-168941.68"/>
<text text-anchor="middle" x="362689.32" y="-177653.2" font-family="Times,serif" font-size="14.00">恋している</text>
</g>
<!-- 公爵&#45;&gt;ザセーキナ -->
<g id="edge16" class="edge">
<title>公爵&#45;&gt;ザセーキナ</title>
<path fill="none" stroke="black" d="M308200.9,-8640.08C308036.44,-21418.56 307551.9,-59065.85 307360.68,-73923.12"/>
<polygon fill="black" stroke="black" points="307357.18,-73923.27 307360.55,-73933.32 307364.18,-73923.36 307357.18,-73923.27"/>
<text text-anchor="middle" x="307724.79" y="-41291.4" font-family="Times,serif" font-size="14.00">お金のための結婚</text>
</g>
<!-- ルーシン&#45;&gt;ヴラジーミル・ペトローヴィチ -->
<g id="edge27" class="edge">
<title>ルーシン&#45;&gt;ヴラジーミル・ペトローヴィチ</title>
<path fill="none" stroke="black" d="M230919.42,-205813.17C225369.6,-195691.85 213139.75,-173401.42 205419.64,-159335.65"/>
<polygon fill="black" stroke="black" points="205422.58,-159333.72 205414.7,-159326.64 205416.44,-159337.09 205422.58,-159333.72"/>
<text text-anchor="middle" x="218294.9" y="-182584.21" font-family="Times,serif" font-size="14.00">ジナイーダ家にいるのは毒だと忠告する</text>
</g>
<!-- ルーシン&#45;&gt;ジナイーダ -->
<g id="edge19" class="edge">
<title>ルーシン&#45;&gt;ジナイーダ</title>
<path fill="none" stroke="black" d="M240729.5,-206239.56C251786.94,-198404.82 273814.64,-182791.11 289405.68,-171737.37"/>
<polygon fill="black" stroke="black" points="289407.75,-171740.19 289413.89,-171731.55 289403.7,-171734.48 289407.75,-171740.19"/>
<text text-anchor="middle" x="265172.59" y="-188998.26" font-family="Times,serif" font-size="14.00">よく理解をしながら、悪口も言う</text>
</g>
<!-- マイダーノフ&#45;&gt;ジナイーダ -->
<g id="edge20" class="edge">
<title>マイダーノフ&#45;&gt;ジナイーダ</title>
<path fill="none" stroke="black" d="M308783.59,-227536.23C308492.64,-217020.41 307728.9,-189733.17 307258.99,-173040.35"/>
<polygon fill="black" stroke="black" points="307262.48,-173039.93 307258.7,-173030.03 307255.48,-173040.13 307262.48,-173039.93"/>
<text text-anchor="middle" x="308055.66" y="-200298.09" font-family="Times,serif" font-size="14.00">恋している</text>
</g>
<!-- ニルマーツキイ -->
<g id="node15" class="node">
<title>ニルマーツキイ</title>
<ellipse fill="none" stroke="black" cx="395061.86" cy="-117401.85" rx="11880" ry="3960"/>
<text text-anchor="middle" x="395061.86" y="-117401.15" font-family="Times,serif" font-size="14.00">ニルマーツキイ</text>
</g>
<!-- ニルマーツキイ&#45;&gt;ジナイーダ -->
<g id="edge21" class="edge">
<title>ニルマーツキイ&#45;&gt;ジナイーダ</title>
<path fill="none" stroke="black" d="M388243.84,-120644.86C376013.48,-126462.26 349815.43,-138923.43 330432.32,-148143.05"/>
<polygon fill="black" stroke="black" points="330430.53,-148140.03 330423,-148147.48 330433.53,-148146.35 330430.53,-148140.03"/>
<text text-anchor="middle" x="359303.71" y="-134403.75" font-family="Times,serif" font-size="14.00">恋している</text>
</g>
<!-- マレーフスキイ伯爵&#45;&gt;ヴラジーミル・ペトローヴィチ -->
<g id="edge33" class="edge">
<title>マレーフスキイ伯爵&#45;&gt;ヴラジーミル・ペトローヴィチ</title>
<path fill="none" stroke="black" d="M246544.64,-140453.25C242539.46,-140993.67 238125.35,-141589.49 233645.96,-142194.29"/>
<polygon fill="black" stroke="black" points="233645.14,-142190.87 233635.7,-142195.68 233646.07,-142197.81 233645.14,-142190.87"/>
<text text-anchor="middle" x="239976.93" y="-141312.57" font-family="Times,serif" font-size="14.00">ジナイーダを夜もみはるべきだと言う</text>
</g>
<!-- マレーフスキイ伯爵&#45;&gt;母 -->
<g id="edge35" class="edge">
<title>マレーフスキイ伯爵&#45;&gt;母</title>
<path fill="none" stroke="black" d="M259273.35,-132210.36C254967.79,-126250.38 248318.61,-117050.92 243607.3,-110535.47"/>
<polygon fill="black" stroke="black" points="243609.96,-110533.16 243601.26,-110527.11 243604.29,-110537.27 243609.96,-110533.16"/>
<text text-anchor="middle" x="251572.63" y="-121382.71" font-family="Times,serif" font-size="14.00">父の不貞を手紙によって秘密裏に知らせた</text>
</g>
<!-- マレーフスキイ伯爵&#45;&gt;ザセーキナ -->
<g id="edge31" class="edge">
<title>マレーフスキイ伯爵&#45;&gt;ザセーキナ</title>
<path fill="none" stroke="black" d="M268033.84,-132224.07C276417.6,-121079.86 294421.18,-97148.41 302809.62,-85997.99"/>
<polygon fill="black" stroke="black" points="302812.54,-85999.92 302815.76,-85989.82 302806.95,-85995.71 302812.54,-85999.92"/>
<text text-anchor="middle" x="285365.94" y="-109120.83" font-family="Times,serif" font-size="14.00">取り入ろうとする</text>
</g>
<!-- ドーリスカヤ -->
<g id="node18" class="node">
<title>ドーリスカヤ</title>
<ellipse fill="none" stroke="black" cx="354740.37" cy="-259185.56" rx="11880" ry="3960"/>
<text text-anchor="middle" x="354740.37" y="-259184.86" font-family="Times,serif" font-size="14.00">ドーリスカヤ</text>
</g>
<!-- ドーリスカヤ&#45;&gt;ジナイーダ -->
<g id="edge37" class="edge">
<title>ドーリスカヤ&#45;&gt;ジナイーダ</title>
<path fill="none" stroke="black" d="M352865.18,-255274.78C346337.11,-241660.29 324404.62,-195919.36 313351.91,-172868.58"/>
<polygon fill="black" stroke="black" points="313354.96,-172866.85 313347.48,-172859.35 313348.65,-172869.88 313354.96,-172866.85"/>
<text text-anchor="middle" x="333080.54" y="-214081.48" font-family="Times,serif" font-size="14.00">夫婦関係</text>
</g>
</g>
</svg>
