<?xml version="1.0" encoding="UTF-8" standalone="no"?>
<!DOCTYPE svg PUBLIC "-//W3C//DTD SVG 1.1//EN"
 "http://www.w3.org/Graphics/SVG/1.1/DTD/svg11.dtd">
<!-- Generated by graphviz version 2.47.1 (20210417.1919)
 -->
<!-- Pages: 1 -->
<svg width="43200pt" height="34196pt"
 viewBox="0.00 0.00 43200.00 34195.94" xmlns="http://www.w3.org/2000/svg" xmlns:xlink="http://www.w3.org/1999/xlink">
<g id="graph0" class="graph" transform="scale(0.14 0.14) rotate(0) translate(4 236155.72)">
<polygon fill="white" stroke="transparent" points="-4,4 -4,-236155.72 298338.42,-236155.72 298338.42,4 -4,4"/>
<!-- ヴォーグレイブ判事 -->
<g id="node1" class="node">
<title>ヴォーグレイブ判事</title>
<ellipse fill="none" stroke="black" cx="144787.17" cy="-122837.73" rx="27000" ry="9000"/>
<text text-anchor="middle" x="144787.17" y="-122834.03" font-family="Times,serif" font-size="14.00">ヴォーグレイブ判事</text>
</g>
<!-- コンスタンス・カミルトン -->
<g id="node2" class="node">
<title>コンスタンス・カミルトン</title>
<ellipse fill="none" stroke="black" cx="81269.97" cy="-117963.4" rx="12960" ry="4320"/>
<text text-anchor="middle" x="81269.97" y="-117959.7" font-family="Times,serif" font-size="14.00">コンスタンス・カミルトン</text>
</g>
<!-- ヴォーグレイブ判事&#45;&gt;コンスタンス・カミルトン -->
<g id="edge1" class="edge">
<title>ヴォーグレイブ判事&#45;&gt;コンスタンス・カミルトン</title>
<path fill="none" stroke="black" d="M118479.6,-120812.2C109983.72,-120159.94 100951.33,-119467.17 93913.4,-118928.12"/>
<polygon fill="black" stroke="black" points="93913.65,-118924.63 93903.41,-118927.36 93913.11,-118931.61 93913.65,-118924.63"/>
<text text-anchor="middle" x="106182" y="-119858.96" font-family="Times,serif" font-size="14.00">知人</text>
</g>
<!-- ヴェラ・クレイソーン -->
<g id="node4" class="node">
<title>ヴェラ・クレイソーン</title>
<ellipse fill="none" stroke="black" cx="225799.87" cy="-131675.95" rx="19440" ry="6480"/>
<text text-anchor="middle" x="225799.87" y="-131672.25" font-family="Times,serif" font-size="14.00">ヴェラ・クレイソーン</text>
</g>
<!-- ヴォーグレイブ判事&#45;&gt;ヴェラ・クレイソーン -->
<g id="edge4" class="edge">
<title>ヴォーグレイブ判事&#45;&gt;ヴェラ・クレイソーン</title>
<path fill="none" stroke="black" d="M170447.91,-125637.23C182419.52,-126943.29 196399,-128468.41 207313.87,-129659.19"/>
<polygon fill="black" stroke="black" points="207313.55,-129662.67 207323.87,-129660.28 207314.31,-129655.71 207313.55,-129662.67"/>
<text text-anchor="middle" x="188837.89" y="-127652.01" font-family="Times,serif" font-size="14.00">気に入らない</text>
</g>
<!-- アイザック・モリス -->
<g id="node8" class="node">
<title>アイザック・モリス</title>
<ellipse fill="none" stroke="black" cx="167073.79" cy="-187550.31" rx="12960" ry="4320"/>
<text text-anchor="middle" x="167073.79" y="-187546.61" font-family="Times,serif" font-size="14.00">アイザック・モリス</text>
</g>
<!-- ヴォーグレイブ判事&#45;&gt;アイザック・モリス -->
<g id="edge29" class="edge">
<title>ヴォーグレイブ判事&#45;&gt;アイザック・モリス</title>
<path fill="none" stroke="black" d="M147866.56,-131779.19C152726.69,-145891.31 161992.94,-172797.28 165592.4,-183248.87"/>
<polygon fill="black" stroke="black" points="165589.13,-183250.12 165595.7,-183258.44 165595.75,-183247.84 165589.13,-183250.12"/>
<text text-anchor="middle" x="156714.98" y="-157517.83" font-family="Times,serif" font-size="14.00">殺害</text>
</g>
<!-- エミリー・ブレンド -->
<g id="node9" class="node">
<title>エミリー・ブレンド</title>
<ellipse fill="none" stroke="black" cx="215440.57" cy="-81293.2" rx="15120" ry="5040"/>
<text text-anchor="middle" x="215440.57" y="-81289.5" font-family="Times,serif" font-size="14.00">エミリー・ブレンド</text>
</g>
<!-- ヴォーグレイブ判事&#45;&gt;エミリー・ブレンド -->
<g id="edge34" class="edge">
<title>ヴォーグレイブ判事&#45;&gt;エミリー・ブレンド</title>
<path fill="none" stroke="black" d="M158102.48,-115008.27C172857.17,-106332.44 196128.1,-92649.02 207974.98,-85683"/>
<polygon fill="black" stroke="black" points="207976.81,-85685.99 207983.66,-85677.9 207973.26,-85679.95 207976.81,-85685.99"/>
<text text-anchor="middle" x="183024.23" y="-100349.43" font-family="Times,serif" font-size="14.00">殺害</text>
</g>
<!-- マッカーサー将軍 -->
<g id="node10" class="node">
<title>マッカーサー将軍</title>
<ellipse fill="none" stroke="black" cx="68459.2" cy="-179187.69" rx="14040" ry="4680"/>
<text text-anchor="middle" x="68459.2" y="-179183.99" font-family="Times,serif" font-size="14.00">マッカーサー将軍</text>
</g>
<!-- ヴォーグレイブ判事&#45;&gt;マッカーサー将軍 -->
<g id="edge32" class="edge">
<title>ヴォーグレイブ判事&#45;&gt;マッカーサー将軍</title>
<path fill="none" stroke="black" d="M133676.31,-131040.44C117205.6,-143200.13 86897.22,-165575.62 74245.22,-174916.1"/>
<polygon fill="black" stroke="black" points="74243.08,-174913.33 74237.11,-174922.09 74247.23,-174918.96 74243.08,-174913.33"/>
<text text-anchor="middle" x="103946.26" y="-152982.07" font-family="Times,serif" font-size="14.00">殺害</text>
</g>
<!-- アームストロング医師 -->
<g id="node11" class="node">
<title>アームストロング医師</title>
<ellipse fill="none" stroke="black" cx="169755.83" cy="-148944.83" rx="16200" ry="5400"/>
<text text-anchor="middle" x="169755.83" y="-148941.13" font-family="Times,serif" font-size="14.00">アームストロング医師</text>
</g>
<!-- ヴォーグレイブ判事&#45;&gt;アームストロング医師 -->
<g id="edge37" class="edge">
<title>ヴォーグレイブ判事&#45;&gt;アームストロング医師</title>
<path fill="none" stroke="black" d="M152980.11,-131413.46C156893.07,-135505.84 161446.4,-140266.35 164821.12,-143793.08"/>
<polygon fill="black" stroke="black" points="164818.78,-143795.71 164828.23,-143800.51 164823.84,-143790.87 164818.78,-143795.71"/>
<text text-anchor="middle" x="158886.11" y="-137607.07" font-family="Times,serif" font-size="14.00">殺害</text>
</g>
<!-- アンソニー・マーストン -->
<g id="node12" class="node">
<title>アンソニー・マーストン</title>
<ellipse fill="none" stroke="black" cx="72901.77" cy="-59520.76" rx="14040" ry="4680"/>
<text text-anchor="middle" x="72901.77" y="-59517.06" font-family="Times,serif" font-size="14.00">アンソニー・マーストン</text>
</g>
<!-- ヴォーグレイブ判事&#45;&gt;アンソニー・マーストン -->
<g id="edge30" class="edge">
<title>ヴォーグレイブ判事&#45;&gt;アンソニー・マーストン</title>
<path fill="none" stroke="black" d="M135230.61,-114420.27C119748.29,-100783.38 89722.88,-74336.87 77878.75,-63904.51"/>
<polygon fill="black" stroke="black" points="77880.98,-63901.8 77871.16,-63897.82 77876.35,-63907.06 77880.98,-63901.8"/>
<text text-anchor="middle" x="106540.18" y="-89166.19" font-family="Times,serif" font-size="14.00">殺害</text>
</g>
<!-- ブロア -->
<g id="node13" class="node">
<title>ブロア</title>
<ellipse fill="none" stroke="black" cx="177986.2" cy="-82731.9" rx="16200" ry="5400"/>
<text text-anchor="middle" x="177986.2" y="-82728.2" font-family="Times,serif" font-size="14.00">ブロア</text>
</g>
<!-- ヴォーグレイブ判事&#45;&gt;ブロア -->
<g id="edge36" class="edge">
<title>ヴォーグレイブ判事&#45;&gt;ブロア</title>
<path fill="none" stroke="black" d="M151969.15,-114161.6C158580,-106175.41 168169,-94591.49 173670.49,-87945.46"/>
<polygon fill="black" stroke="black" points="173673.36,-87947.48 173677.04,-87937.54 173667.97,-87943.02 173673.36,-87947.48"/>
<text text-anchor="middle" x="162805.32" y="-101057.33" font-family="Times,serif" font-size="14.00">殺害</text>
</g>
<!-- ロジャーズ夫 -->
<g id="node14" class="node">
<title>ロジャーズ夫</title>
<ellipse fill="none" stroke="black" cx="135924.52" cy="-93443.67" rx="14040" ry="4680"/>
<text text-anchor="middle" x="135924.52" y="-93439.97" font-family="Times,serif" font-size="14.00">ロジャーズ夫</text>
</g>
<!-- ヴォーグレイブ判事&#45;&gt;ロジャーズ夫 -->
<g id="edge33" class="edge">
<title>ヴォーグレイブ判事&#45;&gt;ロジャーズ夫</title>
<path fill="none" stroke="black" d="M142087.09,-113882.58C140518.19,-108679.12 138605.74,-102336.25 137331.45,-98109.91"/>
<polygon fill="black" stroke="black" points="137334.77,-98108.8 137328.53,-98100.24 137328.06,-98110.82 137334.77,-98108.8"/>
<text text-anchor="middle" x="139694.77" y="-106000.04" font-family="Times,serif" font-size="14.00">殺害</text>
</g>
<!-- エドワード・シートン -->
<g id="node16" class="node">
<title>エドワード・シートン</title>
<ellipse fill="none" stroke="black" cx="116265.67" cy="-64351.23" rx="11880" ry="3960"/>
<text text-anchor="middle" x="116265.67" y="-64347.53" font-family="Times,serif" font-size="14.00">エドワード・シートン</text>
</g>
<!-- ヴォーグレイブ判事&#45;&gt;エドワード・シートン -->
<g id="edge5" class="edge">
<title>ヴォーグレイブ判事&#45;&gt;エドワード・シートン</title>
<path fill="none" stroke="black" d="M140454.89,-113953.89C134148.01,-101020.94 122698.3,-77542.05 118176.42,-68269.43"/>
<polygon fill="black" stroke="black" points="118179.39,-68267.55 118171.86,-68260.09 118173.1,-68270.62 118179.39,-68267.55"/>
<text text-anchor="middle" x="129237.15" y="-91115.46" font-family="Times,serif" font-size="14.00">死刑になるように工作？</text>
</g>
<!-- ロジャーズ妻 -->
<g id="node28" class="node">
<title>ロジャーズ妻</title>
<ellipse fill="none" stroke="black" cx="118429.07" cy="-179890.67" rx="12960" ry="4320"/>
<text text-anchor="middle" x="118429.07" y="-179886.97" font-family="Times,serif" font-size="14.00">ロジャーズ妻</text>
</g>
<!-- ヴォーグレイブ判事&#45;&gt;ロジャーズ妻 -->
<g id="edge31" class="edge">
<title>ヴォーグレイブ判事&#45;&gt;ロジャーズ妻</title>
<path fill="none" stroke="black" d="M140677.54,-131733.16C134924.35,-144186.13 124693.84,-166330.39 120406.06,-175611.42"/>
<polygon fill="black" stroke="black" points="120402.76,-175610.22 120401.74,-175620.77 120409.11,-175613.16 120402.76,-175610.22"/>
<text text-anchor="middle" x="130527.3" y="-153676.09" font-family="Times,serif" font-size="14.00">殺害</text>
</g>
<!-- コンスタンス・カミルトン&#45;&gt;ヴォーグレイブ判事 -->
<g id="edge16" class="edge">
<title>コンスタンス・カミルトン&#45;&gt;ヴォーグレイブ判事</title>
<path fill="none" stroke="black" d="M93896.23,-118937.87C100931.44,-119478.8 109963.48,-120172.31 118460.79,-120824.11"/>
<polygon fill="black" stroke="black" points="118460.67,-120827.61 118470.91,-120824.89 118461.21,-120820.63 118460.67,-120827.61"/>
<text text-anchor="middle" x="106164.01" y="-119884.79" font-family="Times,serif" font-size="14.00">招待</text>
</g>
<!-- ユーナ・ナンシー・オーエン -->
<g id="node3" class="node">
<title>ユーナ・ナンシー・オーエン</title>
<ellipse fill="none" stroke="black" cx="286454.42" cy="-116860.92" rx="11880" ry="3960"/>
<text text-anchor="middle" x="286454.42" y="-116857.22" font-family="Times,serif" font-size="14.00">ユーナ・ナンシー・オーエン</text>
</g>
<!-- ユーナ・ナンシー・オーエン&#45;&gt;ヴェラ・クレイソーン -->
<g id="edge2" class="edge">
<title>ユーナ・ナンシー・オーエン&#45;&gt;ヴェラ・クレイソーン</title>
<path fill="none" stroke="black" d="M276871.51,-119201.57C267380.9,-121519.68 252685.77,-125109 241490.79,-127843.4"/>
<polygon fill="black" stroke="black" points="241489.94,-127840.01 241481.05,-127845.78 241491.6,-127846.81 241489.94,-127840.01"/>
<text text-anchor="middle" x="259145.15" y="-123526.29" font-family="Times,serif" font-size="14.00">仕事の依頼</text>
</g>
<!-- ヒューゴー -->
<g id="node5" class="node">
<title>ヒューゴー</title>
<ellipse fill="none" stroke="black" cx="196047.04" cy="-115093.6" rx="12960" ry="4320"/>
<text text-anchor="middle" x="196047.04" y="-115089.9" font-family="Times,serif" font-size="14.00">ヒューゴー</text>
</g>
<!-- ヴェラ・クレイソーン&#45;&gt;ヒューゴー -->
<g id="edge18" class="edge">
<title>ヴェラ・クレイソーン&#45;&gt;ヒューゴー</title>
<path fill="none" stroke="black" d="M215821.49,-126114.63C211504.84,-123708.8 206568.87,-120957.8 202708.25,-118806.13"/>
<polygon fill="black" stroke="black" points="202709.84,-118803.02 202699.4,-118801.21 202706.44,-118809.13 202709.84,-118803.02"/>
<text text-anchor="middle" x="209207.37" y="-122464.18" font-family="Times,serif" font-size="14.00">恋人未満、片思い</text>
</g>
<!-- シリル・ハミルトン -->
<g id="node6" class="node">
<title>シリル・ハミルトン</title>
<ellipse fill="none" stroke="black" cx="279188.13" cy="-164702.36" rx="11880" ry="3960"/>
<text text-anchor="middle" x="279188.13" y="-164698.66" font-family="Times,serif" font-size="14.00">シリル・ハミルトン</text>
</g>
<!-- ヴェラ・クレイソーン&#45;&gt;シリル・ハミルトン -->
<g id="edge6" class="edge">
<title>ヴェラ・クレイソーン&#45;&gt;シリル・ハミルトン</title>
<path fill="none" stroke="black" d="M235021.8,-137380.71C246107.49,-144238.41 264362.73,-155531.25 273543.79,-161210.73"/>
<polygon fill="black" stroke="black" points="273542.27,-161213.9 273552.62,-161216.19 273545.96,-161207.95 273542.27,-161213.9"/>
<text text-anchor="middle" x="254211.3" y="-149299.52" font-family="Times,serif" font-size="14.00">溺死するように工作？</text>
</g>
<!-- フィリップ・ロンバート -->
<g id="node7" class="node">
<title>フィリップ・ロンバート</title>
<ellipse fill="none" stroke="black" cx="197515.94" cy="-156468.21" rx="18360" ry="6120"/>
<text text-anchor="middle" x="197515.94" y="-156464.51" font-family="Times,serif" font-size="14.00">フィリップ・ロンバート</text>
</g>
<!-- ヴェラ・クレイソーン&#45;&gt;フィリップ・ロンバート -->
<g id="edge27" class="edge">
<title>ヴェラ・クレイソーン&#45;&gt;フィリップ・ロンバート</title>
<path fill="none" stroke="black" d="M218882.04,-137731.92C214357.93,-141695.97 208485.32,-146843.65 204042.09,-150740.02"/>
<polygon fill="black" stroke="black" points="204039.57,-150737.57 204034.36,-150746.8 204044.18,-150742.83 204039.57,-150737.57"/>
<text text-anchor="middle" x="211447.57" y="-144239.77" font-family="Times,serif" font-size="14.00">殺害</text>
</g>
<!-- ヴェラ・クレイソーン&#45;&gt;エミリー・ブレンド -->
<g id="edge20" class="edge">
<title>ヴェラ・クレイソーン&#45;&gt;エミリー・ブレンド</title>
<path fill="none" stroke="black" d="M224470.58,-125210.89C222380.28,-115044.71 218368.57,-95533.61 216476.55,-86331.71"/>
<polygon fill="black" stroke="black" points="216479.91,-86330.69 216474.47,-86321.6 216473.05,-86332.1 216479.91,-86330.69"/>
<text text-anchor="middle" x="220423.56" y="-105775.1" font-family="Times,serif" font-size="14.00">恐ろしいと思う</text>
</g>
<!-- ヴェラ・クレイソーン&#45;&gt;アームストロング医師 -->
<g id="edge24" class="edge">
<title>ヴェラ・クレイソーン&#45;&gt;アームストロング医師</title>
<path fill="none" stroke="black" d="M211524.49,-136074.63C202283.71,-138921.99 190391.7,-142586.29 181661.51,-145276.33"/>
<polygon fill="black" stroke="black" points="181660.44,-145272.99 181651.92,-145279.28 181662.5,-145279.68 181660.44,-145272.99"/>
<text text-anchor="middle" x="196578.5" y="-140679.28" font-family="Times,serif" font-size="14.00">疑い</text>
</g>
<!-- ヒューゴー&#45;&gt;ヴォーグレイブ判事 -->
<g id="edge28" class="edge">
<title>ヒューゴー&#45;&gt;ヴォーグレイブ判事</title>
<path fill="none" stroke="black" d="M184242.76,-116876.94C179800.24,-117548.1 174566.83,-118338.74 169389.43,-119120.92"/>
<polygon fill="black" stroke="black" points="169388.83,-119117.47 169379.46,-119122.43 169389.88,-119124.39 169388.83,-119117.47"/>
<text text-anchor="middle" x="176787.09" y="-118002.73" font-family="Times,serif" font-size="14.00">情報提供</text>
</g>
<!-- フィリップ・ロンバート&#45;&gt;ヴォーグレイブ判事 -->
<g id="edge23" class="edge">
<title>フィリップ・ロンバート&#45;&gt;ヴォーグレイブ判事</title>
<path fill="none" stroke="black" d="M189011.66,-151044.17C180431.74,-145571.89 167088.85,-137061.77 157301.83,-130819.59"/>
<polygon fill="black" stroke="black" points="157303.63,-130816.59 157293.32,-130814.16 157299.87,-130822.49 157303.63,-130816.59"/>
<text text-anchor="middle" x="173142.25" y="-140935.68" font-family="Times,serif" font-size="14.00">疑い</text>
</g>
<!-- フィリップ・ロンバート&#45;&gt;ヴェラ・クレイソーン -->
<g id="edge25" class="edge">
<title>フィリップ・ロンバート&#45;&gt;ヴェラ・クレイソーン</title>
<path fill="none" stroke="black" d="M204049.73,-150748.73C208494.59,-146854.23 214367.22,-141706.63 218889.79,-137740.82"/>
<polygon fill="black" stroke="black" points="218892.44,-137743.14 218897.66,-137733.92 218887.83,-137737.88 218892.44,-137743.14"/>
<text text-anchor="middle" x="211484.26" y="-144248.57" font-family="Times,serif" font-size="14.00">信頼</text>
</g>
<!-- 東アジアの部族民21名 -->
<g id="node24" class="node">
<title>東アジアの部族民21名</title>
<ellipse fill="none" stroke="black" cx="228052.46" cy="-212590.5" rx="11880" ry="3960"/>
<text text-anchor="middle" x="228052.46" y="-212586.8" font-family="Times,serif" font-size="14.00">東アジアの部族民21名</text>
</g>
<!-- フィリップ・ロンバート&#45;&gt;東アジアの部族民21名 -->
<g id="edge15" class="edge">
<title>フィリップ・ロンバート&#45;&gt;東アジアの部族民21名</title>
<path fill="none" stroke="black" d="M200792.48,-162490.09C207080.22,-174046.17 220680.35,-199041.48 225927.52,-208685.12"/>
<polygon fill="black" stroke="black" points="225924.47,-208686.84 225932.32,-208693.95 225930.62,-208683.49 225924.47,-208686.84"/>
<text text-anchor="middle" x="213345.5" y="-185591.41" font-family="Times,serif" font-size="14.00">殺害</text>
</g>
<!-- アイザック・モリス&#45;&gt;フィリップ・ロンバート -->
<g id="edge3" class="edge">
<title>アイザック・モリス&#45;&gt;フィリップ・ロンバート</title>
<path fill="none" stroke="black" d="M171096.15,-183443.39C176402.62,-178025.37 185773.92,-168457.07 191810.69,-162293.39"/>
<polygon fill="black" stroke="black" points="191813.38,-162295.65 191817.88,-162286.06 191808.38,-162290.75 191813.38,-162295.65"/>
<text text-anchor="middle" x="181417.42" y="-172872.19" font-family="Times,serif" font-size="14.00">仕事の紹介</text>
</g>
<!-- ビアトリス・テイラー -->
<g id="node23" class="node">
<title>ビアトリス・テイラー</title>
<ellipse fill="none" stroke="black" cx="259764.33" cy="-39698.81" rx="11880" ry="3960"/>
<text text-anchor="middle" x="259764.33" y="-39695.11" font-family="Times,serif" font-size="14.00">ビアトリス・テイラー</text>
</g>
<!-- エミリー・ブレンド&#45;&gt;ビアトリス・テイラー -->
<g id="edge7" class="edge">
<title>エミリー・ブレンド&#45;&gt;ビアトリス・テイラー</title>
<path fill="none" stroke="black" d="M220501.79,-76543.64C229408.1,-68185.77 247702.37,-51018.02 255780.32,-43437.49"/>
<polygon fill="black" stroke="black" points="255782.82,-43439.95 255787.72,-43430.55 255778.03,-43434.84 255782.82,-43439.95"/>
<text text-anchor="middle" x="238098.05" y="-59994.37" font-family="Times,serif" font-size="14.00">自殺させた？</text>
</g>
<!-- アーサー・リッチモンド -->
<g id="node22" class="node">
<title>アーサー・リッチモンド</title>
<ellipse fill="none" stroke="black" cx="44956.05" cy="-232191.72" rx="11880" ry="3960"/>
<text text-anchor="middle" x="44956.05" y="-232188.02" font-family="Times,serif" font-size="14.00">アーサー・リッチモンド</text>
</g>
<!-- マッカーサー将軍&#45;&gt;アーサー・リッチモンド -->
<g id="edge8" class="edge">
<title>マッカーサー将軍&#45;&gt;アーサー・リッチモンド</title>
<path fill="none" stroke="black" d="M66406.24,-183817.5C61847.78,-194097.69 50949.62,-218675.09 46697.32,-228264.82"/>
<polygon fill="black" stroke="black" points="46694.09,-228263.47 46693.24,-228274.03 46700.49,-228266.31 46694.09,-228263.47"/>
<text text-anchor="middle" x="56480.28" y="-206044.96" font-family="Times,serif" font-size="14.00">意図的に戦死させた？</text>
</g>
<!-- レズリー -->
<g id="node25" class="node">
<title>レズリー</title>
<ellipse fill="none" stroke="black" cx="11880" cy="-189896.23" rx="11880" ry="3960"/>
<text text-anchor="middle" x="11880" y="-189892.53" font-family="Times,serif" font-size="14.00">レズリー</text>
</g>
<!-- マッカーサー将軍&#45;&gt;レズリー -->
<g id="edge17" class="edge">
<title>マッカーサー将軍&#45;&gt;レズリー</title>
<path fill="none" stroke="black" d="M56249.84,-181498.51C46099.79,-183419.58 31814.78,-186123.25 22221.18,-187938.99"/>
<polygon fill="black" stroke="black" points="22220.25,-187935.61 22211.08,-187940.91 22221.55,-187942.48 22220.25,-187935.61"/>
<text text-anchor="middle" x="39221.01" y="-184722.55" font-family="Times,serif" font-size="14.00">夫婦</text>
</g>
<!-- アームストロング医師&#45;&gt;ヴォーグレイブ判事 -->
<g id="edge35" class="edge">
<title>アームストロング医師&#45;&gt;ヴォーグレイブ判事</title>
<path fill="none" stroke="black" d="M164842.17,-143799.18C161472.09,-140273.58 156919.42,-135512.9 153003.59,-131419.53"/>
<polygon fill="black" stroke="black" points="153005.86,-131416.84 152996.42,-131412.04 153000.8,-131421.68 153005.86,-131416.84"/>
<text text-anchor="middle" x="158972.88" y="-137613.16" font-family="Times,serif" font-size="14.00">信頼、協力関係</text>
</g>
<!-- アームストロング医師&#45;&gt;フィリップ・ロンバート -->
<g id="edge21" class="edge">
<title>アームストロング医師&#45;&gt;フィリップ・ロンバート</title>
<path fill="none" stroke="black" d="M182325.56,-152351.41C182636.51,-152435.68 182948.34,-152520.19 183260.43,-152604.77"/>
<polygon fill="black" stroke="black" points="183259.56,-152608.16 183270.13,-152607.4 183261.39,-152601.4 183259.56,-152608.16"/>
<text text-anchor="middle" x="182735.49" y="-152481.89" font-family="Times,serif" font-size="14.00">捜索の相談、信頼</text>
</g>
<!-- ルイーザ・メアリ・クリース -->
<g id="node21" class="node">
<title>ルイーザ・メアリ・クリース</title>
<ellipse fill="none" stroke="black" cx="120359.35" cy="-144995.7" rx="14040" ry="4680"/>
<text text-anchor="middle" x="120359.35" y="-144992" font-family="Times,serif" font-size="14.00">ルイーザ・メアリ・クリース</text>
</g>
<!-- アームストロング医師&#45;&gt;ルイーザ・メアリ・クリース -->
<g id="edge9" class="edge">
<title>アームストロング医師&#45;&gt;ルイーザ・メアリ・クリース</title>
<path fill="none" stroke="black" d="M154002.34,-147685.38C147576.45,-147171.64 140216.58,-146583.24 134022.39,-146088.03"/>
<polygon fill="black" stroke="black" points="134022.43,-146084.52 134012.18,-146087.21 134021.87,-146091.5 134022.43,-146084.52"/>
<text text-anchor="middle" x="143947.87" y="-146890.5" font-family="Times,serif" font-size="14.00">手術中死亡させた？</text>
</g>
<!-- ルーシー・クームズ -->
<g id="node19" class="node">
<title>ルーシー・クームズ</title>
<ellipse fill="none" stroke="black" cx="54961.39" cy="-3960" rx="11880" ry="3960"/>
<text text-anchor="middle" x="54961.39" y="-3956.3" font-family="Times,serif" font-size="14.00">ルーシー・クームズ</text>
</g>
<!-- アンソニー・マーストン&#45;&gt;ルーシー・クームズ -->
<g id="edge11" class="edge">
<title>アンソニー・マーストン&#45;&gt;ルーシー・クームズ</title>
<path fill="none" stroke="black" d="M71399.19,-54867.34C67939.68,-44153.34 59461.92,-17897.98 56235.9,-7907.11"/>
<polygon fill="black" stroke="black" points="56239.2,-7905.95 56232.8,-7897.51 56232.54,-7908.1 56239.2,-7905.95"/>
<text text-anchor="middle" x="63781.55" y="-31391.03" font-family="Times,serif" font-size="14.00">轢き殺した</text>
</g>
<!-- ジョン・クームズ -->
<g id="node20" class="node">
<title>ジョン・クームズ</title>
<ellipse fill="none" stroke="black" cx="17761.4" cy="-42652.7" rx="11880" ry="3960"/>
<text text-anchor="middle" x="17761.4" y="-42649" font-family="Times,serif" font-size="14.00">ジョン・クームズ</text>
</g>
<!-- アンソニー・マーストン&#45;&gt;ジョン・クームズ -->
<g id="edge10" class="edge">
<title>アンソニー・マーストン&#45;&gt;ジョン・クームズ</title>
<path fill="none" stroke="black" d="M62557.59,-56356.36C52163.2,-53176.6 36318.36,-48329.48 26524.23,-45333.35"/>
<polygon fill="black" stroke="black" points="26524.96,-45329.91 26514.37,-45330.33 26522.91,-45336.61 26524.96,-45329.91"/>
<text text-anchor="middle" x="44504.91" y="-50848.66" font-family="Times,serif" font-size="14.00">轢き殺した</text>
</g>
<!-- ブロア&#45;&gt;フィリップ・ロンバート -->
<g id="edge22" class="edge">
<title>ブロア&#45;&gt;フィリップ・ロンバート</title>
<path fill="none" stroke="black" d="M179410.9,-88110.98C182956.09,-101496.19 192157.52,-136237.03 195898.61,-150361.85"/>
<polygon fill="black" stroke="black" points="195895.23,-150362.78 195901.18,-150371.55 195902,-150360.99 195895.23,-150362.78"/>
<text text-anchor="middle" x="187583.75" y="-119240.22" font-family="Times,serif" font-size="14.00">ピストルの所有を疑う</text>
</g>
<!-- ブロア&#45;&gt;エミリー・ブレンド -->
<g id="edge26" class="edge">
<title>ブロア&#45;&gt;エミリー・ブレンド</title>
<path fill="none" stroke="black" d="M194079.94,-82113.7C196180.88,-82033 198326.93,-81950.57 200409.47,-81870.57"/>
<polygon fill="black" stroke="black" points="200409.93,-81874.06 200419.79,-81870.18 200409.66,-81867.07 200409.93,-81874.06"/>
<text text-anchor="middle" x="197230.21" y="-81995.94" font-family="Times,serif" font-size="14.00">疑い</text>
</g>
<!-- ブロア&#45;&gt;ロジャーズ夫 -->
<g id="edge19" class="edge">
<title>ブロア&#45;&gt;ロジャーズ夫</title>
<path fill="none" stroke="black" d="M165113.15,-86010.25C159355.55,-87476.53 152632.59,-89188.66 147091,-90599.92"/>
<polygon fill="black" stroke="black" points="147089.93,-90596.58 147081.11,-90602.44 147091.66,-90603.37 147089.93,-90596.58"/>
<text text-anchor="middle" x="156023.58" y="-88308.89" font-family="Times,serif" font-size="14.00">ロジャーズ妻の殺害容疑</text>
</g>
<!-- ジェイムズ・スティーブン・ランドー -->
<g id="node18" class="node">
<title>ジェイムズ・スティーブン・ランドー</title>
<ellipse fill="none" stroke="black" cx="187280.21" cy="-20555.29" rx="11880" ry="3960"/>
<text text-anchor="middle" x="187280.21" y="-20551.59" font-family="Times,serif" font-size="14.00">ジェイムズ・スティーブン・ランドー</text>
</g>
<!-- ブロア&#45;&gt;ジェイムズ・スティーブン・ランドー -->
<g id="edge12" class="edge">
<title>ブロア&#45;&gt;ジェイムズ・スティーブン・ランドー</title>
<path fill="none" stroke="black" d="M178792.39,-77338.54C180626.83,-65066.19 185078.34,-35285.77 186687.43,-24521.01"/>
<polygon fill="black" stroke="black" points="186690.96,-24521.07 186688.97,-24510.66 186684.03,-24520.03 186690.96,-24521.07"/>
<text text-anchor="middle" x="182703.91" y="-50933.57" font-family="Times,serif" font-size="14.00">有罪にする</text>
</g>
<!-- ロジャーズ夫&#45;&gt;ルイーザ・メアリ・クリース -->
<g id="edge13" class="edge">
<title>ロジャーズ夫&#45;&gt;ルイーザ・メアリ・クリース</title>
<path fill="none" stroke="black" d="M134518.56,-98100.23C131561.53,-107893.95 124728.03,-130526.58 121768.35,-140329.09"/>
<polygon fill="black" stroke="black" points="121764.91,-140328.37 121765.37,-140338.96 121771.61,-140330.4 121764.91,-140328.37"/>
<text text-anchor="middle" x="128128.95" y="-119218.46" font-family="Times,serif" font-size="14.00">殺害</text>
</g>
<!-- フレッド・ナラコット -->
<g id="node15" class="node">
<title>フレッド・ナラコット</title>
<ellipse fill="none" stroke="black" cx="162048" cy="-66620" rx="10800" ry="3600"/>
<text text-anchor="middle" x="162048" y="-66616.3" font-family="Times,serif" font-size="14.00">フレッド・ナラコット</text>
</g>
<!-- ジェニファー・ブレイディー -->
<g id="node17" class="node">
<title>ジェニファー・ブレイディー</title>
<ellipse fill="none" stroke="black" cx="225068" cy="-54016" rx="10800" ry="3600"/>
<text text-anchor="middle" x="225068" y="-54012.3" font-family="Times,serif" font-size="14.00">ジェニファー・ブレイディー</text>
</g>
<!-- トマス・レッグ卿 -->
<g id="node26" class="node">
<title>トマス・レッグ卿</title>
<ellipse fill="none" stroke="black" cx="162048" cy="-41412" rx="10800" ry="3600"/>
<text text-anchor="middle" x="162048" y="-41408.3" font-family="Times,serif" font-size="14.00">トマス・レッグ卿</text>
</g>
<!-- メイン警部 -->
<g id="node27" class="node">
<title>メイン警部</title>
<ellipse fill="none" stroke="black" cx="237672" cy="-180056" rx="10800" ry="3600"/>
<text text-anchor="middle" x="237672" y="-180052.3" font-family="Times,serif" font-size="14.00">メイン警部</text>
</g>
<!-- ロジャーズ妻&#45;&gt;ルイーザ・メアリ・クリース -->
<g id="edge14" class="edge">
<title>ロジャーズ妻&#45;&gt;ルイーザ・メアリ・クリース</title>
<path fill="none" stroke="black" d="M118668,-175571.39C119032.28,-168986.13 119723.79,-156485.17 120099.92,-149685.53"/>
<polygon fill="black" stroke="black" points="120103.43,-149685.44 120100.49,-149675.26 120096.44,-149685.05 120103.43,-149685.44"/>
<text text-anchor="middle" x="119369.46" y="-162632.26" font-family="Times,serif" font-size="14.00">殺害</text>
</g>
</g>
</svg>
